<?xml version="1.0" standalone="no"?>
<!DOCTYPE svg PUBLIC "-//W3C//DTD SVG 20010904//EN"
 "http://www.w3.org/TR/2001/REC-SVG-20010904/DTD/svg10.dtd">
<svg version="1.0" xmlns="http://www.w3.org/2000/svg"
 width="260.000000pt" height="260.000000pt" viewBox="0 0 260.000000 260.000000"
 preserveAspectRatio="xMidYMid meet">
<metadata>
Created by potrace 1.14, written by Peter Selinger 2001-2017
</metadata>
<g transform="translate(0.000000,260.000000) scale(0.100000,-0.100000)"
fill="#000000" stroke="none">
<path d="M270 2143 c0 -62 0 -63 28 -63 174 -3 255 -37 272 -115 12 -57 11
-1271 -2 -1319 -20 -81 -86 -110 -265 -115 l-33 -1 0 -63 0 -62 458 1 c251 1
460 2 463 3 6 1 5 108 -1 115 -3 2 -41 7 -85 11 -100 8 -122 13 -161 36 -53
32 -59 61 -59 294 l-1 210 31 30 c16 17 55 51 85 75 30 25 57 47 60 50 14 16
91 72 94 69 2 -2 72 -92 157 -199 85 -107 213 -269 286 -360 72 -91 130 -166
128 -168 -1 -2 -13 -5 -26 -7 -54 -10 -215 -35 -221 -35 -5 0 -8 -28 -8 -63
l0 -62 419 0 c231 0 422 3 426 7 7 7 9 107 3 114 -2 1 -19 5 -38 9 -46 7 -105
33 -156 67 -55 36 -76 61 -701 817 -29 36 -50 68 -46 71 5 4 49 40 98 81 50
41 92 76 95 79 3 3 55 46 115 95 61 49 115 94 121 100 6 5 28 24 49 40 21 17
43 35 49 41 31 30 123 85 174 105 31 12 101 29 154 38 l98 16 0 61 0 60 -422
-2 c-233 -1 -425 -2 -428 -3 -9 -2 -3 -102 6 -111 5 -5 41 -12 79 -15 39 -4
72 -8 75 -10 3 -2 37 -6 75 -10 39 -4 72 -9 75 -12 3 -3 -9 -17 -26 -31 -16
-15 -60 -53 -97 -86 -38 -32 -79 -68 -94 -79 -14 -11 -36 -30 -48 -41 -26 -24
-54 -49 -150 -131 -38 -33 -72 -62 -75 -65 -3 -3 -57 -50 -120 -105 -63 -55
-117 -102 -120 -105 -3 -3 -36 -32 -75 -65 -38 -33 -76 -66 -83 -72 -7 -7 -14
-13 -15 -13 -2 0 -2 161 -2 358 1 376 2 384 48 425 26 22 73 34 172 43 44 3
83 8 86 10 3 1 5 29 4 61 l-1 58 -462 0 -462 1 0 -63z"/>
</g>
</svg>
