<?xml version="1.0" encoding="utf-8"?>
<!-- Generator: Adobe Illustrator 25.2.3, SVG Export Plug-In . SVG Version: 6.00 Build 0)  -->
<svg version="1.1" id="Layer_1" xmlns="http://www.w3.org/2000/svg" xmlns:xlink="http://www.w3.org/1999/xlink" x="0px" y="0px"
	 viewBox="0 0 1600 1266" style="enable-background:new 0 0 1600 1266;" xml:space="preserve">
<style type="text/css">
	.st0{fill-rule:evenodd;clip-rule:evenodd;fill:#1A1A1A;}
	.st1{fill:#FAD1D1;}
	.st2{font-family:'OpenSans-Bold';}
	.st3{font-size:39.4453px;}
	.st4{fill:#FAD1D1;stroke:#FAD1D1;stroke-width:0.8876;}
</style>
<desc>Created with Sketch.</desc>
<g id="claim_01">
	<rect x="0" class="st0" width="1600" height="1266"/>
	<text transform="matrix(1 0 0 1 442 439.9997)" class="st1 st2 st3">PORNY DAYS – FILM KUNST FESTIVAL</text>
	<path id="Ifyoucome_x2C_youwillcomeagain." class="st4" d="M224.7,658V543.6H200V658H224.7z M271.7,658v-78.9h20.9l0.8-1.6h-21.7
		v-19.9c0-6.8,1.3-11.9,3.8-15.4s6.3-5.3,11.4-5.3c5.2,0,9.4,1.4,12.5,4.2c3.1,2.8,4.7,6.6,4.7,11.3c0,2.2-0.4,4.2-1.1,6
		c-0.8,1.8-2,3.5-3.6,5l0,0l1.1,1c1.6-1.3,2.9-3,3.8-5.1s1.4-4.4,1.4-6.8c0-5.6-2.1-10-6.2-13.3s-9.7-5-16.8-5
		c-5,0-9.6,0.8-13.8,2.5s-7.9,4.1-11,7.3c-3.2,3.2-5.6,6.9-7.2,11.1c-1.6,4.2-2.5,8.8-2.5,13.7l0,0v8.8h-11.3v1.6h11.3V658H271.7z
		 M343,694.8c3.4,0,6.5-0.9,9.3-2.6c2.8-1.7,5.6-4.5,8.2-8.2c1.4-2.1,2.9-4.5,4.5-7.4c1.6-2.9,3.5-6.7,5.6-11.5l0,0l40.7-87.6h-2
		l-26.5,57l-26.3-57h-25.2l40.4,81.2l-2.9,6.4c-2.2,4.7-4,8.4-5.5,11s-2.9,4.9-4.2,6.8c-2.4,3.6-4.9,6.2-7.5,7.8
		c-2.6,1.6-5.5,2.5-8.7,2.5c-4.5,0-8-1.4-10.7-4.2c-2.7-2.8-4-6.5-4-11c0-1.5,0.2-3,0.7-4.5c0.5-1.5,1.3-3.1,2.4-5l0,0l-1.6-0.7
		c-1.1,1.7-1.9,3.4-2.4,5.1c-0.5,1.6-0.7,3.3-0.7,5.1c0,5.1,1.5,9.2,4.5,12.3C334.1,693.3,338.1,694.8,343,694.8z M459.2,659.7
		c5.8,0,11.3-1,16.5-3.1c5.2-2.1,9.9-5,13.9-8.8c4.1-3.8,7.3-8.3,9.5-13.5c2.2-5.2,3.3-10.6,3.3-16.4c0-5.8-1.1-11.2-3.3-16.4
		c-2.2-5.2-5.3-9.7-9.5-13.6c-4-3.8-8.7-6.8-13.9-8.8c-5.2-2.1-10.7-3.1-16.5-3.1s-11.3,1-16.6,3.1c-5.3,2.1-9.9,5-13.8,8.8
		c-4.1,3.9-7.3,8.5-9.5,13.6c-2.2,5.2-3.3,10.6-3.3,16.4c0,5.8,1.1,11.2,3.3,16.4c2.2,5.2,5.3,9.7,9.5,13.5
		c3.9,3.8,8.5,6.8,13.8,8.8C447.9,658.6,453.4,659.7,459.2,659.7z M459.2,658.2c-6.5,0-11.2-3.2-14.1-9.6
		c-2.8-6.4-4.2-16.6-4.2-30.8c0-14.3,1.4-24.6,4.2-31c2.8-6.4,7.5-9.6,14.1-9.6c6.5,0,11.2,3.2,14.1,9.6c2.8,6.4,4.2,16.7,4.2,31
		c0,14.2-1.4,24.4-4.2,30.8C470.4,655,465.7,658.2,459.2,658.2z M541.7,659.7c6.9,0,12.7-1.8,17.4-5.5c4.7-3.6,8-8.8,9.9-15.4l0,0
		l0.7,19.3h22.9v-80.6H569v52.6c-0.1,2.9-0.5,5.8-1.3,8.5c-0.8,2.7-1.9,5.2-3.4,7.5c-1.7,2.8-3.8,5-6.2,6.5
		c-2.4,1.5-4.8,2.3-7.4,2.3c-3.9,0-6.9-1.3-8.8-4c-2-2.7-2.9-6.6-2.9-11.7l0,0v-61.8h-23.5v54.1c0,8.5,2.3,15.3,7,20.4
		S533.5,659.7,541.7,659.7z M686.3,659.7c9.4,0,17.1-2.3,23.1-6.9c6-4.6,9.9-11.1,11.7-19.5l0,0l-1.6-0.5
		c-1.3,7.2-4.3,12.9-9.1,17.1c-4.7,4.2-10.2,6.3-16.4,6.3c-7.6,0-13.5-3.3-17.6-9.8s-6.1-15.8-6.1-27.9s2.3-21.6,7-28.6
		s10.9-10.5,18.8-10.5c6,0,10.9,1.9,14.7,5.7c3.8,3.8,5.7,8.7,5.7,14.7c0,3.1-0.5,5.7-1.6,8.1c-1.1,2.3-2.7,4.3-4.7,6l0,0l1,1.1
		c2.2-1.5,3.9-3.6,5.1-6.4c1.3-2.7,1.9-5.7,1.9-8.8c0-7.2-2.6-13-7.9-17.3c-5.3-4.4-12.4-6.5-21.3-6.5c-5.8,0-11.3,1.1-16.7,3.2
		c-5.3,2.1-10,5.1-14.1,9.1c-4.1,4-7.3,8.7-9.4,13.9c-2.1,5.2-3.2,10.8-3.2,16.8c0,5.8,1,11.1,3,16.1c2,5,4.9,9.3,8.7,13
		c3.8,3.8,8.2,6.7,13.2,8.7S680.8,659.7,686.3,659.7z M771.1,659.7c5.8,0,11.3-1,16.5-3.1c5.2-2.1,9.9-5,13.9-8.8
		c4.1-3.8,7.3-8.3,9.5-13.5c2.2-5.2,3.3-10.6,3.3-16.4c0-5.8-1.1-11.2-3.3-16.4c-2.2-5.2-5.3-9.7-9.5-13.6c-4-3.8-8.7-6.8-13.9-8.8
		c-5.2-2.1-10.7-3.1-16.5-3.1c-5.8,0-11.3,1-16.6,3.1c-5.3,2.1-9.9,5-13.8,8.8c-4.1,3.9-7.3,8.5-9.5,13.6
		c-2.2,5.2-3.3,10.6-3.3,16.4c0,5.8,1.1,11.2,3.3,16.4c2.2,5.2,5.3,9.7,9.5,13.5c3.9,3.8,8.5,6.8,13.8,8.8
		C759.8,658.6,765.3,659.7,771.1,659.7z M771.1,658.2c-6.5,0-11.2-3.2-14.1-9.6c-2.8-6.4-4.2-16.6-4.2-30.8c0-14.3,1.4-24.6,4.2-31
		c2.8-6.4,7.5-9.6,14.1-9.6s11.2,3.2,14.1,9.6c2.8,6.4,4.2,16.7,4.2,31c0,14.2-1.4,24.4-4.2,30.8C782.3,655,777.6,658.2,771.1,658.2
		z M851.6,658v-52.9c0.1-2.9,0.5-5.7,1.3-8.4c0.8-2.7,1.8-5.1,3.1-7.3c1.7-2.6,3.8-4.7,6-6.2s4.7-2.3,7.2-2.3c3.8,0,6.7,1.3,8.6,3.8
		c1.9,2.6,2.9,6.4,2.9,11.5l0,0V658h23.5v-52.9c0.1-2.9,0.5-5.7,1.3-8.4c0.8-2.7,1.8-5.1,3.1-7.3c1.7-2.6,3.8-4.7,6-6.2
		s4.7-2.3,7.2-2.3c3.8,0,6.7,1.3,8.6,3.8c1.9,2.6,2.9,6.4,2.9,11.5l0,0V658h23.5v-53.8c0-8.8-2.2-15.8-6.7-20.8
		c-4.5-5.1-10.7-7.6-18.8-7.6c-7.1,0-13,1.9-17.8,5.7c-4.8,3.8-8.1,9.2-9.8,16.2c-1-6.9-3.6-12.2-8-16.1c-4.4-3.9-10-5.8-17-5.8
		s-12.8,1.8-17.5,5.4s-7.9,8.7-9.6,15.4l0,0l-0.7-19.1h-22.9V658H851.6z M1011.9,659.7c9.7,0,17.8-2.3,24.2-6.9
		c6.4-4.6,10.7-11.1,12.9-19.5l0,0l-1.6-0.5c-1.9,7.4-5.4,13.2-10.5,17.5c-5.2,4.2-11.2,6.4-18.1,6.4c-8.1,0-14.1-3.1-18.1-9.3
		c-4-6.2-6-15.6-6-28.1l0,0v-4.6h54.7c0-5.4-0.9-10.6-2.7-15.4c-1.8-4.8-4.3-8.9-7.6-12.4c-3.5-3.6-7.6-6.3-12.3-8.2
		c-4.7-1.9-9.9-2.8-15.5-2.8s-11.1,1.1-16.3,3.2s-9.7,5.1-13.5,9.1c-3.8,3.9-6.7,8.5-8.7,13.6s-3,10.8-3,16.7
		c0,5.8,1.1,11.2,3.2,16.2s5.1,9.4,9.1,13.2c3.9,3.7,8.5,6.6,13.7,8.7C1001.2,658.6,1006.5,659.7,1011.9,659.7z M1026.5,612.9h-31.7
		c0.3-12.1,1.9-21.1,4.6-26.9s6.8-8.7,12.1-8.7c5.3,0,9.2,2.7,11.5,8.1C1025.3,590.8,1026.5,600,1026.5,612.9L1026.5,612.9z
		 M1060.1,685.6c9.3,0,16.2-2.2,20.8-6.6s6.9-11,6.9-19.9l0,0v-26.8h-25.3V658h23.7v1.3c0,8.3-2.2,14.5-6.5,18.5
		c-4.4,4.1-10.9,6.1-19.6,6.1l0,0V685.6z M1148.7,694.8c3.4,0,6.5-0.9,9.3-2.6s5.6-4.5,8.2-8.2c1.4-2.1,2.9-4.5,4.5-7.4
		c1.6-2.9,3.5-6.7,5.6-11.5l0,0l40.7-87.6h-2l-26.5,57l-26.3-57h-25.2l40.4,81.2l-2.9,6.4c-2.2,4.7-4,8.4-5.5,11s-2.9,4.9-4.2,6.8
		c-2.4,3.6-4.9,6.2-7.5,7.8c-2.6,1.6-5.5,2.5-8.7,2.5c-4.5,0-8-1.4-10.7-4.2c-2.7-2.8-4-6.5-4-11c0-1.5,0.2-3,0.7-4.5
		c0.5-1.5,1.3-3.1,2.4-5l0,0l-1.6-0.7c-1.1,1.7-1.9,3.4-2.4,5.1c-0.5,1.6-0.7,3.3-0.7,5.1c0,5.1,1.5,9.2,4.5,12.3
		C1139.8,693.3,1143.8,694.8,1148.7,694.8z M1264.9,659.7c5.8,0,11.3-1,16.5-3.1c5.2-2.1,9.9-5,13.9-8.8c4.1-3.8,7.3-8.3,9.5-13.5
		c2.2-5.2,3.3-10.6,3.3-16.4c0-5.8-1.1-11.2-3.3-16.4c-2.2-5.2-5.3-9.7-9.5-13.6c-4-3.8-8.7-6.8-13.9-8.8
		c-5.2-2.1-10.7-3.1-16.5-3.1s-11.3,1-16.6,3.1c-5.3,2.1-9.9,5-13.8,8.8c-4.1,3.9-7.3,8.5-9.5,13.6c-2.2,5.2-3.3,10.6-3.3,16.4
		c0,5.8,1.1,11.2,3.3,16.4s5.3,9.7,9.5,13.5c3.9,3.8,8.5,6.8,13.8,8.8C1253.6,658.6,1259.1,659.7,1264.9,659.7z M1264.9,658.2
		c-6.5,0-11.2-3.2-14.1-9.6c-2.8-6.4-4.2-16.6-4.2-30.8c0-14.3,1.4-24.6,4.2-31c2.8-6.4,7.5-9.6,14.1-9.6s11.2,3.2,14.1,9.6
		c2.8,6.4,4.2,16.7,4.2,31c0,14.2-1.4,24.4-4.2,30.8C1276.1,655,1271.4,658.2,1264.9,658.2z M1347.4,659.7c6.9,0,12.7-1.8,17.4-5.5
		c4.7-3.6,8-8.8,9.9-15.4l0,0l0.7,19.3h22.9v-80.6h-23.5v52.6c-0.1,2.9-0.5,5.8-1.3,8.5s-1.9,5.2-3.4,7.5c-1.7,2.8-3.8,5-6.2,6.5
		c-2.4,1.5-4.8,2.3-7.4,2.3c-3.9,0-6.9-1.3-8.8-4c-2-2.7-2.9-6.6-2.9-11.7l0,0v-61.8h-23.5v54.1c0,8.5,2.3,15.3,7,20.4
		C1332.8,657.1,1339.2,659.7,1347.4,659.7z M241.5,835.9l22.7-53.6l23.9,53.6h0.7l34.3-81.7h-1.8l-22.9,54.6L276,754.2h-24.2
		l11.6,26.1l-12.1,28.4l-23.7-54.6h-24.3l37.6,81.7H241.5z M357,739.9v-23.5h-23.7v23.5H357z M357,834.7v-80.6h-23.5v80.6H357z
		 M400.2,834.7V712.3h-23.5v122.4H400.2z M443.3,834.7V712.3h-23.5v122.4H443.3z M537.3,836.4c9.4,0,17.1-2.3,23.1-6.9
		c6-4.6,9.9-11.1,11.7-19.5l0,0l-1.6-0.5c-1.3,7.2-4.3,12.9-9.1,17.1c-4.7,4.2-10.2,6.3-16.4,6.3c-7.6,0-13.5-3.3-17.6-9.8
		c-4.1-6.5-6.1-15.8-6.1-27.9s2.3-21.6,7-28.6c4.7-7,10.9-10.5,18.8-10.5c6,0,10.9,1.9,14.7,5.7c3.8,3.8,5.7,8.7,5.7,14.7
		c0,3.1-0.5,5.7-1.6,8.1s-2.7,4.3-4.7,6l0,0l1,1.1c2.2-1.5,3.9-3.6,5.1-6.4c1.3-2.7,1.9-5.7,1.9-8.8c0-7.2-2.6-13-7.9-17.3
		c-5.3-4.4-12.4-6.5-21.3-6.5c-5.8,0-11.3,1.1-16.7,3.2c-5.3,2.1-10,5.1-14.1,9.1c-4.1,4-7.3,8.7-9.4,13.9
		c-2.1,5.2-3.2,10.8-3.2,16.8c0,5.8,1,11.1,3,16.1s4.9,9.3,8.7,13c3.8,3.8,8.2,6.7,13.2,8.7C526.6,835.3,531.8,836.4,537.3,836.4z
		 M622.1,836.4c5.8,0,11.3-1,16.5-3.1c5.2-2.1,9.9-5,13.9-8.8c4.1-3.8,7.3-8.3,9.5-13.5c2.2-5.2,3.3-10.6,3.3-16.4
		c0-5.8-1.1-11.2-3.3-16.4c-2.2-5.2-5.3-9.7-9.5-13.6c-4-3.8-8.7-6.8-13.9-8.8c-5.2-2.1-10.7-3.1-16.5-3.1s-11.3,1-16.6,3.1
		c-5.3,2.1-9.9,5-13.8,8.8c-4.1,3.9-7.3,8.5-9.5,13.6c-2.2,5.2-3.3,10.6-3.3,16.4c0,5.8,1.1,11.2,3.3,16.4c2.2,5.2,5.3,9.7,9.5,13.5
		c3.9,3.8,8.5,6.8,13.8,8.8C610.8,835.3,616.3,836.4,622.1,836.4z M622.1,834.9c-6.5,0-11.2-3.2-14.1-9.6
		c-2.8-6.4-4.2-16.6-4.2-30.8c0-14.3,1.4-24.6,4.2-31c2.8-6.4,7.5-9.6,14.1-9.6s11.2,3.2,14.1,9.6c2.8,6.4,4.2,16.7,4.2,31
		c0,14.2-1.4,24.4-4.2,30.8C633.3,831.7,628.6,834.9,622.1,834.9z M702.6,834.7v-52.9c0.1-2.9,0.5-5.7,1.3-8.4s1.8-5.1,3.1-7.3
		c1.7-2.6,3.8-4.7,6-6.2c2.3-1.5,4.7-2.3,7.2-2.3c3.8,0,6.7,1.3,8.6,3.8c1.9,2.6,2.9,6.4,2.9,11.5l0,0v61.8h23.5v-52.9
		c0.1-2.9,0.5-5.7,1.3-8.4c0.8-2.7,1.8-5.1,3.1-7.3c1.7-2.6,3.8-4.7,6-6.2c2.3-1.5,4.7-2.3,7.2-2.3c3.8,0,6.7,1.3,8.6,3.8
		c1.9,2.6,2.9,6.4,2.9,11.5l0,0v61.8h23.5V781c0-8.8-2.2-15.8-6.7-20.8c-4.5-5.1-10.7-7.6-18.8-7.6c-7.1,0-13,1.9-17.8,5.7
		s-8.1,9.2-9.8,16.2c-1-6.9-3.6-12.2-8-16.1c-4.4-3.9-10-5.8-17-5.8s-12.8,1.8-17.5,5.4c-4.7,3.6-7.9,8.7-9.6,15.4l0,0l-0.7-19.1
		h-22.9v80.6H702.6z M862.9,836.4c9.7,0,17.8-2.3,24.2-6.9s10.7-11.1,12.9-19.5l0,0l-1.6-0.5c-1.9,7.4-5.4,13.2-10.5,17.5
		c-5.2,4.2-11.2,6.4-18.1,6.4c-8.1,0-14.1-3.1-18.1-9.3c-4-6.2-6-15.6-6-28.1l0,0v-4.6h54.7c0-5.4-0.9-10.6-2.7-15.4
		c-1.8-4.8-4.3-8.9-7.6-12.4c-3.5-3.6-7.6-6.3-12.3-8.2c-4.7-1.9-9.9-2.8-15.5-2.8s-11.1,1.1-16.3,3.2s-9.7,5.1-13.5,9.1
		c-3.8,3.9-6.7,8.5-8.7,13.6c-2,5.2-3,10.8-3,16.7c0,5.8,1.1,11.2,3.2,16.2c2.1,5,5.1,9.4,9.1,13.2c3.9,3.7,8.5,6.6,13.7,8.7
		C852.1,835.3,857.5,836.4,862.9,836.4z M877.5,789.6h-31.7c0.3-12.1,1.9-21.1,4.6-26.9c2.7-5.8,6.8-8.7,12.1-8.7
		c5.3,0,9.2,2.7,11.5,8.1C876.3,767.5,877.5,776.7,877.5,789.6L877.5,789.6z M971.9,836.4c7.1,0,13.2-2,18.3-6
		c5.1-4,8.4-9.2,9.8-15.5l0,0l1.6,19.9h21.2v-50.7c0-10.3-3.1-18.2-9.4-23.5c-6.3-5.3-15.5-8-27.7-8c-9.9,0-17.7,2-23.3,6
		c-5.6,4-8.4,9.3-8.4,16.1c0,2.8,0.6,5.4,1.7,7.7c1.1,2.3,2.8,4.1,5,5.6l0,0l1-1.1c-2.2-1.6-3.7-3.4-4.7-5.2s-1.4-4.1-1.4-6.9
		c0-5.8,2.3-10.5,6.9-14.2c4.6-3.7,10.4-5.6,17.4-5.6c6.3,0,11.2,1.7,14.5,5.1s5.1,8.4,5.1,15l0,0v14.4l-20.8,3.6
		c-10.8,1.9-18.7,4.7-23.6,8.5c-5,3.8-7.4,8.7-7.4,14.7c0,6.1,2.2,11,6.6,14.7S964.7,836.4,971.9,836.4z M982.4,830.3
		c-3.6,0-6.4-1.6-8.5-4.7c-2.1-3.2-3.1-7.6-3.1-13.2c0-5.9,1.3-10.3,3.8-13.3s6.6-5,12.3-6.1l0,0l12.9-2.1v19.8
		c-0.8,5.7-2.8,10.4-6,14.1C990.4,828.4,986.6,830.3,982.4,830.3z M1072.6,871.5c5.9,0,11.5-0.6,17-1.8c5.4-1.2,10.3-2.9,14.5-5.2
		c5.7-2.9,10-6.6,12.9-10.9c2.9-4.4,4.4-9.2,4.4-14.5c0-7.5-2.6-13.3-7.7-17.2s-12.4-6-21.9-6l0,0h-37.6c-2.9,0-5.2-0.5-6.8-1.5
		c-1.6-1-2.4-2.5-2.4-4.4c0-1.6,0.7-3.2,2.2-4.6s3.7-2.7,6.6-3.8c2.8,1.3,5.9,2.3,9.2,3c3.3,0.7,6.9,1.1,10.7,1.1
		c4.7,0,9-0.5,13-1.6c4-1,7.5-2.6,10.7-4.7c3.8-2.4,6.7-5.4,8.7-8.9c2-3.5,3-7.4,3-11.5c0-4.5-1.2-8.6-3.5-12.3s-5.7-6.8-10-9.2
		c2.4-3.9,5-6.9,7.7-8.8c2.7-2,5.7-2.9,8.8-2.9c3.7,0,6.6,1,8.7,2.9c2.1,2,3.1,4.7,3.1,8.2c0,1.9-0.3,3.6-1,5.1
		c-0.7,1.6-1.7,3.2-3.3,4.8l0,0l1.1,1c1.5-1.5,2.7-3.2,3.5-5.1c0.8-1.9,1.2-3.8,1.2-5.9c0-3.9-1.2-7-3.6-9.3
		c-2.4-2.3-5.7-3.4-9.8-3.4c-3.5,0-6.7,1-9.6,3s-5.7,5.2-8.4,9.6c-2.9-1.4-6.1-2.5-9.6-3.2c-3.4-0.7-7.1-1.1-10.9-1.1
		c-4.6,0-8.9,0.5-12.9,1.6s-7.6,2.5-10.6,4.5c-3.8,2.5-6.7,5.5-8.7,9c-2,3.5-3,7.3-3,11.4c0,4.6,1.2,8.8,3.6,12.6
		c2.4,3.8,5.8,6.9,10.3,9.2c-4.8,1.9-8.5,4.4-11.1,7.6c-2.6,3.2-3.9,6.9-3.9,11c0,4.2,1.3,7.9,3.9,11s6.2,5.1,10.8,6.1
		c-5.6,0-10.2,1.4-14,4.2c-3.8,2.8-5.6,6.5-5.6,10.9c0,6.3,3.5,11.2,10.6,14.6C1050.2,869.8,1060,871.5,1072.6,871.5z M1073.9,804.2
		c-4.6,0-7.8-2-9.7-5.9c-1.9-3.9-2.9-10.3-2.9-19.3c0-8.8,1-15.2,2.9-19.1c2-3.9,5.2-5.9,9.6-5.9c4.5,0,7.7,1.9,9.6,5.8
		s2.9,10.3,2.9,19.2c0,9-1,15.5-2.9,19.4C1081.7,802.2,1078.4,804.2,1073.9,804.2z M1072.6,869.9c-12,0-21.4-1.6-28.2-4.7
		s-10.2-7.6-10.2-13.4c0-4.2,1.9-7.7,5.7-10.3c3.8-2.6,8.6-3.9,14.4-3.9l0,0h43c5.2,0,9.2,0.9,11.8,2.8c2.6,1.9,3.9,4.6,3.9,8.3
		c0,3.6-1.4,6.9-4.1,9.8c-2.7,2.9-6.6,5.4-11.8,7.4c-3.5,1.3-7.3,2.3-11.5,3C1081.4,869.5,1077,869.9,1072.6,869.9z M1150.2,836.4
		c7.1,0,13.2-2,18.3-6c5.1-4,8.4-9.2,9.8-15.5l0,0l1.6,19.9h21.2v-50.7c0-10.3-3.1-18.2-9.4-23.5c-6.3-5.3-15.5-8-27.7-8
		c-9.9,0-17.7,2-23.3,6c-5.6,4-8.4,9.3-8.4,16.1c0,2.8,0.6,5.4,1.7,7.7c1.1,2.3,2.8,4.1,5,5.6l0,0l1-1.1c-2.2-1.6-3.7-3.4-4.7-5.2
		s-1.4-4.1-1.4-6.9c0-5.8,2.3-10.5,6.9-14.2c4.6-3.7,10.4-5.6,17.4-5.6c6.3,0,11.2,1.7,14.5,5.1c3.4,3.4,5.1,8.4,5.1,15l0,0v14.4
		l-20.8,3.6c-10.8,1.9-18.7,4.7-23.6,8.5c-5,3.8-7.4,8.7-7.4,14.7c0,6.1,2.2,11,6.6,14.7C1137.2,834.5,1143,836.4,1150.2,836.4z
		 M1160.6,830.3c-3.6,0-6.4-1.6-8.5-4.7c-2.1-3.2-3.1-7.6-3.1-13.2c0-5.9,1.3-10.3,3.8-13.3s6.6-5,12.3-6.1l0,0l12.9-2.1v19.8
		c-0.8,5.7-2.8,10.4-6,14.1C1168.6,828.4,1164.9,830.3,1160.6,830.3z M1243.6,739.9v-23.5h-23.7v23.5H1243.6z M1243.6,834.7v-80.6
		h-23.5v80.6H1243.6z M1286.8,834.7v-52.6c0-2.9,0.4-5.8,1.3-8.6c0.9-2.8,2.1-5.3,3.8-7.6c1.9-2.7,4-4.8,6.5-6.4
		c2.5-1.5,4.9-2.3,7.4-2.3c4,0,7,1.3,9,3.8c2,2.6,2.9,6.5,2.9,11.7l0,0v61.9h23.5v-54.2c0-8.5-2.4-15.3-7.1-20.3
		c-4.7-5.1-11.2-7.6-19.4-7.6c-7,0-12.9,1.9-17.9,5.6c-5,3.7-8.3,8.8-10,15.4l0,0l-0.7-19.3h-22.9v80.6H1286.8z M1384.5,834.7v-25.7
		h-25.3v25.7H1384.5z"/>
</g>
</svg>
