<?xml version="1.0" encoding="utf-8"?>
<!-- Generator: Adobe Illustrator 25.2.3, SVG Export Plug-In . SVG Version: 6.00 Build 0)  -->
<svg version="1.1" id="Layer_1" xmlns="http://www.w3.org/2000/svg" xmlns:xlink="http://www.w3.org/1999/xlink" x="0px" y="0px"
	 viewBox="0 0 1600 1266" style="enable-background:new 0 0 1600 1266;" xml:space="preserve">
<style type="text/css">
	.st0{fill-rule:evenodd;clip-rule:evenodd;fill:#FFFFFF;}
	.st1{font-family:'OpenSans-Bold';}
	.st2{font-size:39.4453px;}
	.st3{stroke:#000000;stroke-width:0.9544;}
</style>
<desc>Created with Sketch.</desc>
<g id="claim_04">
	<rect y="0" class="st0" width="1600" height="1266"/>
	<text transform="matrix(1 0 0 1 688 439.9997)" class="st1 st2">NEWSLETTER</text>
	<path id="War_x2019_sdasschonzwischenuns_x3F_" class="st3" d="M231.7,657.7l10.7-26.7l1.3-3.1v-0.2l18.5-46.6l32.3,76.6h0.7
		L340.5,542h-2l-33.1,84.6L271,542h-25.2l15.4,36.7l-18.5,46.6L208.1,542H182l49,115.7H231.7z M370.7,657.7c7.1,0,13.2-2,18.4-6
		s8.4-9.2,9.8-15.5l0,0l1.6,19.9h21.3v-50.5c0-10.3-3.1-18.1-9.4-23.5c-6.3-5.3-15.5-8-27.8-8c-9.9,0-17.7,2-23.4,5.9
		c-5.6,4-8.4,9.3-8.4,16.1c0,2.8,0.6,5.4,1.7,7.7c1.1,2.3,2.8,4.1,5,5.5l0,0l1-1.1c-2.2-1.6-3.7-3.4-4.7-5.2s-1.4-4.1-1.4-6.8
		c0-5.8,2.3-10.5,7-14.2c4.6-3.7,10.5-5.5,17.5-5.5c6.3,0,11.2,1.7,14.6,5.1c3.4,3.4,5.1,8.4,5.1,14.9l0,0v14.3l-20.8,3.6
		c-10.8,1.8-18.7,4.7-23.7,8.5s-7.5,8.7-7.5,14.7c0,6.1,2.2,11,6.6,14.7C357.7,655.9,363.5,657.7,370.7,657.7z M381.2,651.7
		c-3.6,0-6.4-1.6-8.5-4.7c-2.1-3.2-3.1-7.6-3.1-13.2c0-5.9,1.3-10.3,3.8-13.3c2.5-3,6.6-5,12.3-6.1l0,0l13-2.1V632
		c-0.8,5.7-2.8,10.4-6.1,14.1S385.4,651.7,381.2,651.7z M464.5,656.1v-48.4c0.2-3.6,1-7.2,2.3-10.9c1.3-3.7,3-7,4.9-9.9
		c2.3-3.6,5-6.3,8-8.2c3.1-1.9,6.3-2.9,9.8-2.9c4.7,0,8.4,1.4,11.2,4.1c2.8,2.7,4.2,6.4,4.2,11.1c0,2.6-0.5,5-1.5,7.2
		c-1,2.2-2.5,4.2-4.4,6l0,0l1.1,1.1c2.2-2.1,3.8-4.3,4.8-6.6c1-2.3,1.6-4.9,1.6-7.7c0-5.1-1.5-9.2-4.6-12.2c-3.1-3-7.2-4.6-12.5-4.6
		c-5.8,0-11,2.3-15.6,7c-4.6,4.7-7.8,10.8-9.7,18.4l0,0l-0.5-23.8h-23v80.4H464.5z M517.1,592.5c8.1,0,14.5-2.1,19.2-6.3
		s7-10,7-17.5l0,0V542h-25.6v25.6h23.9v1.3c0,7-2.2,12.4-6.6,16.2s-10.4,5.8-18,5.8l0,0V592.5z M589.4,657.7c10.5,0,19-2.6,25.5-7.7
		s9.8-11.9,9.8-20.3c0-6-1.9-10.8-5.6-14.5c-3.7-3.7-9.9-6.7-18.7-9.1l0,0l-16.1-4.2c-5.5-1.4-9.3-3.1-11.4-5.1s-3.2-4.6-3.2-7.8
		c0-3.9,1.8-7.1,5.5-9.5c3.7-2.4,8.4-3.7,14.3-3.7c7.2,0,13.2,1.4,18,4.2c4.8,2.8,8.3,7,10.5,12.4l0,0l1.6-0.7
		c-2.2-5.7-5.9-10-11.1-13c-5.2-3-11.6-4.6-19-4.6c-9.6,0-17.6,2.5-23.9,7.6c-6.3,5.1-9.4,11.5-9.4,19.3c0,5.8,1.8,10.5,5.4,14.2
		c3.6,3.7,9.1,6.5,16.6,8.3l0,0l16.1,4.1c5.6,1.4,9.5,3.2,11.9,5.3c2.3,2.1,3.5,4.9,3.5,8.2c0,4.6-1.9,8.2-5.6,10.9
		s-8.6,4.1-14.8,4.1c-8.2,0-15.5-1.9-21.9-5.8s-10.4-9-12-15.4l0,0l-1.6,0.7c1.7,6.6,5.9,12,12.5,16.1S580.6,657.7,589.4,657.7z
		 M707.1,657.7c6.8,0,12.7-1.9,17.6-5.7c5-3.8,8.3-8.9,10.1-15.2l0,0l0.7,19.2h23V534h-23.6v60.8c-1.7-6.3-5.1-11.3-10.1-15.1
		c-5-3.7-10.8-5.6-17.5-5.6c-5,0-9.8,1.2-14.3,3.6c-4.5,2.4-8.4,5.8-11.7,10.3c-2.7,3.8-4.8,8.2-6.3,13.1
		c-1.5,4.9-2.2,10.2-2.2,15.7c0,5.4,0.7,10.5,2.2,15.3c1.5,4.8,3.6,9,6.5,12.7c3.2,4,7,7.2,11.5,9.5
		C697.3,656.6,702.1,657.7,707.1,657.7z M715.5,652.7c-5.6,0-9.9-3.2-13-9.6c-3.1-6.4-4.7-15.3-4.7-26.7c0-11.5,1.6-20.6,4.8-27.2
		s7.6-9.9,13.2-9.9c2.7,0,5.3,0.8,7.8,2.3c2.5,1.5,4.6,3.7,6.5,6.5c1.4,2.3,2.5,4.8,3.4,7.7c0.8,2.8,1.3,5.8,1.4,8.8l0,0v23
		c-0.1,3.2-0.6,6.1-1.4,9c-0.8,2.8-2,5.4-3.5,7.7c-1.9,2.7-4,4.8-6.6,6.4C720.8,651.9,718.2,652.7,715.5,652.7z M796.3,657.7
		c7.1,0,13.2-2,18.4-6c5.1-4,8.4-9.2,9.8-15.5l0,0l1.6,19.9h21.3v-50.5c0-10.3-3.1-18.1-9.4-23.5c-6.3-5.3-15.5-8-27.8-8
		c-9.9,0-17.7,2-23.4,5.9c-5.6,4-8.4,9.3-8.4,16.1c0,2.8,0.6,5.4,1.7,7.7c1.1,2.3,2.8,4.1,5,5.5l0,0l1-1.1c-2.2-1.6-3.7-3.4-4.7-5.2
		c-0.9-1.8-1.4-4.1-1.4-6.8c0-5.8,2.3-10.5,7-14.2c4.6-3.7,10.5-5.5,17.5-5.5c6.3,0,11.2,1.7,14.6,5.1c3.4,3.4,5.1,8.4,5.1,14.9l0,0
		v14.3l-20.8,3.6c-10.8,1.8-18.7,4.7-23.7,8.5s-7.5,8.7-7.5,14.7c0,6.1,2.2,11,6.6,14.7C783.2,655.9,789.1,657.7,796.3,657.7z
		 M806.8,651.7c-3.6,0-6.4-1.6-8.5-4.7s-3.1-7.6-3.1-13.2c0-5.9,1.3-10.3,3.8-13.3c2.5-3,6.6-5,12.3-6.1l0,0l13-2.1V632
		c-0.8,5.7-2.8,10.4-6.1,14.1C814.8,649.8,811,651.7,806.8,651.7z M894.6,657.7c10.5,0,19-2.6,25.5-7.7s9.8-11.9,9.8-20.3
		c0-6-1.9-10.8-5.6-14.5c-3.7-3.7-9.9-6.7-18.7-9.1l0,0l-16.1-4.2c-5.5-1.4-9.3-3.1-11.4-5.1s-3.2-4.6-3.2-7.8
		c0-3.9,1.8-7.1,5.5-9.5c3.7-2.4,8.4-3.7,14.3-3.7c7.2,0,13.2,1.4,18,4.2c4.8,2.8,8.3,7,10.5,12.4l0,0l1.6-0.7
		c-2.2-5.7-5.9-10-11.1-13c-5.2-3-11.6-4.6-19-4.6c-9.6,0-17.6,2.5-23.9,7.6c-6.3,5.1-9.4,11.5-9.4,19.3c0,5.8,1.8,10.5,5.4,14.2
		c3.6,3.7,9.1,6.5,16.6,8.3l0,0l16.1,4.1c5.6,1.4,9.5,3.2,11.9,5.3c2.3,2.1,3.5,4.9,3.5,8.2c0,4.6-1.9,8.2-5.6,10.9
		s-8.6,4.1-14.8,4.1c-8.2,0-15.5-1.9-21.9-5.8s-10.4-9-12-15.4l0,0l-1.6,0.7c1.7,6.6,5.9,12,12.5,16.1S885.9,657.7,894.6,657.7z
		 M1011.9,657.7c10.5,0,19-2.6,25.5-7.7c6.5-5.2,9.8-11.9,9.8-20.3c0-6-1.9-10.8-5.6-14.5c-3.7-3.7-9.9-6.7-18.7-9.1l0,0l-16.1-4.2
		c-5.5-1.4-9.3-3.1-11.4-5.1c-2.1-2-3.2-4.6-3.2-7.8c0-3.9,1.8-7.1,5.5-9.5c3.7-2.4,8.4-3.7,14.3-3.7c7.2,0,13.2,1.4,18,4.2
		c4.8,2.8,8.3,7,10.5,12.4l0,0l1.6-0.7c-2.2-5.7-5.9-10-11.1-13c-5.2-3-11.6-4.6-19-4.6c-9.6,0-17.6,2.5-23.9,7.6
		c-6.3,5.1-9.4,11.5-9.4,19.3c0,5.8,1.8,10.5,5.4,14.2c3.6,3.7,9.1,6.5,16.6,8.3l0,0l16.1,4.1c5.6,1.4,9.5,3.2,11.9,5.3
		c2.3,2.1,3.5,4.9,3.5,8.2c0,4.6-1.9,8.2-5.6,10.9c-3.7,2.7-8.6,4.1-14.8,4.1c-8.2,0-15.5-1.9-21.9-5.8c-6.4-3.9-10.4-9-12-15.4l0,0
		l-1.6,0.7c1.7,6.6,5.9,12,12.5,16.1C995.4,655.7,1003.1,657.7,1011.9,657.7z M1096.5,657.7c9.4,0,17.1-2.3,23.2-6.9
		c6.1-4.6,10-11.1,11.7-19.5l0,0l-1.6-0.5c-1.3,7.2-4.3,12.9-9.1,17c-4.8,4.2-10.2,6.3-16.5,6.3c-7.7,0-13.5-3.3-17.6-9.8
		c-4.1-6.5-6.1-15.8-6.1-27.9s2.3-21.6,7-28.5s11-10.4,18.9-10.4c6,0,10.9,1.9,14.8,5.7s5.7,8.7,5.7,14.7c0,3-0.5,5.7-1.6,8.1
		c-1.1,2.3-2.7,4.3-4.8,5.9l0,0l1,1.1c2.2-1.5,3.9-3.6,5.2-6.4s1.9-5.7,1.9-8.8c0-7.2-2.7-12.9-8-17.3c-5.3-4.3-12.4-6.5-21.4-6.5
		c-5.8,0-11.4,1.1-16.7,3.2c-5.4,2.1-10.1,5.1-14.1,9c-4.2,4-7.3,8.6-9.4,13.9c-2.1,5.2-3.2,10.8-3.2,16.8c0,5.8,1,11.1,3,16.1
		c2,4.9,4.9,9.3,8.8,13c3.8,3.8,8.3,6.7,13.3,8.7S1091,657.7,1096.5,657.7z M1167.6,656.1v-52.5c0-2.9,0.4-5.8,1.3-8.6
		c0.9-2.8,2.1-5.3,3.8-7.6c1.9-2.7,4-4.8,6.5-6.4s4.9-2.3,7.5-2.3c4,0,7,1.3,9,3.8s3,6.4,3,11.7l0,0v61.8h23.6V602
		c0-8.5-2.4-15.2-7.1-20.3c-4.8-5.1-11.2-7.6-19.4-7.6c-7,0-13,1.8-18,5.5c-5,3.7-8.3,8.8-10.1,15.3l0,0v-61H1144v122.1H1167.6z
		 M1278.6,657.7c5.8,0,11.3-1,16.6-3.1c5.2-2.1,9.9-5,13.9-8.8c4.2-3.8,7.3-8.3,9.5-13.4c2.2-5.2,3.3-10.6,3.3-16.4
		c0-5.8-1.1-11.2-3.3-16.4c-2.2-5.2-5.4-9.7-9.5-13.6c-4-3.8-8.7-6.7-13.9-8.8c-5.2-2.1-10.8-3.1-16.6-3.1s-11.3,1-16.6,3.1
		c-5.3,2.1-9.9,5-13.9,8.8c-4.2,3.9-7.3,8.4-9.5,13.6c-2.2,5.2-3.3,10.6-3.3,16.4c0,5.8,1.1,11.2,3.3,16.4c2.2,5.2,5.4,9.6,9.5,13.4
		c3.9,3.8,8.6,6.7,13.9,8.8C1267.2,656.7,1272.8,657.7,1278.6,657.7z M1278.6,656.3c-6.6,0-11.3-3.2-14.1-9.5
		c-2.8-6.4-4.3-16.6-4.3-30.7c0-14.2,1.4-24.5,4.3-30.9c2.8-6.4,7.5-9.5,14.1-9.5c6.6,0,11.3,3.2,14.1,9.5
		c2.8,6.4,4.3,16.7,4.3,30.9c0,14.1-1.4,24.4-4.3,30.7C1289.8,653.1,1285.1,656.3,1278.6,656.3z M1359.4,656.1v-52.5
		c0-2.9,0.4-5.8,1.3-8.6c0.9-2.8,2.1-5.3,3.8-7.6c1.9-2.7,4-4.8,6.5-6.4s4.9-2.3,7.5-2.3c4,0,7,1.3,9,3.8s3,6.4,3,11.7l0,0v61.8
		h23.6V602c0-8.5-2.4-15.2-7.1-20.3c-4.8-5.1-11.2-7.6-19.4-7.6c-7,0-13,1.8-18,5.5c-5,3.7-8.3,8.8-10.1,15.3l0,0l-0.7-19.2h-23
		v80.4H1359.4z M337.2,832.4v-1.6h-48.9l47.4-78.1V752h-71.1v1.6h45.1l-47.9,78.1v0.7H337.2z M379.8,833.5l22.8-53.5l23.9,53.5h0.7
		l34.4-81.5h-1.8l-23,54.4L414.4,752h-24.3l11.6,26.1l-12.1,28.4L365.9,752h-24.4l37.7,81.5H379.8z M495.7,737.8v-23.5h-23.8v23.5
		H495.7z M495.7,832.4V752h-23.6v80.4H495.7z M543.6,834c10.5,0,19-2.6,25.5-7.7c6.5-5.2,9.8-11.9,9.8-20.3c0-6-1.9-10.8-5.6-14.5
		c-3.7-3.7-9.9-6.7-18.7-9.1l0,0l-16.1-4.2c-5.5-1.4-9.3-3.1-11.4-5.1c-2.1-2-3.2-4.6-3.2-7.8c0-3.9,1.8-7.1,5.5-9.5
		s8.4-3.7,14.3-3.7c7.2,0,13.2,1.4,18,4.2c4.8,2.8,8.3,7,10.5,12.4l0,0l1.6-0.7c-2.2-5.7-5.9-10-11.1-13c-5.2-3-11.6-4.6-19-4.6
		c-9.6,0-17.6,2.5-23.9,7.6c-6.3,5.1-9.4,11.5-9.4,19.3c0,5.8,1.8,10.5,5.4,14.2c3.6,3.7,9.1,6.5,16.6,8.3l0,0l16.1,4.1
		c5.6,1.4,9.5,3.2,11.9,5.3c2.3,2.1,3.5,4.9,3.5,8.2c0,4.6-1.9,8.2-5.6,10.9c-3.7,2.7-8.6,4.1-14.8,4.1c-8.2,0-15.5-1.9-21.9-5.8
		c-6.4-3.9-10.4-9-12-15.4l0,0l-1.6,0.7c1.7,6.6,5.9,12,12.5,16.1C527.1,832,534.8,834,543.6,834z M628.2,834
		c9.4,0,17.1-2.3,23.2-6.9s10-11.1,11.7-19.5l0,0l-1.6-0.5c-1.3,7.2-4.3,12.9-9.1,17s-10.2,6.3-16.5,6.3c-7.7,0-13.5-3.3-17.6-9.8
		c-4.1-6.5-6.1-15.8-6.1-27.9s2.3-21.6,7-28.5c4.7-7,11-10.4,18.9-10.4c6,0,10.9,1.9,14.8,5.7s5.7,8.7,5.7,14.7c0,3-0.5,5.7-1.6,8.1
		c-1.1,2.3-2.7,4.3-4.8,5.9l0,0l1,1.1c2.2-1.5,3.9-3.6,5.2-6.4c1.3-2.7,1.9-5.7,1.9-8.8c0-7.2-2.7-12.9-8-17.3
		c-5.3-4.3-12.4-6.5-21.4-6.5c-5.8,0-11.4,1.1-16.7,3.2c-5.4,2.1-10.1,5.1-14.1,9c-4.2,4-7.3,8.6-9.4,13.9
		c-2.1,5.2-3.2,10.8-3.2,16.8c0,5.8,1,11.1,3,16.1c2,4.9,4.9,9.3,8.8,13c3.8,3.8,8.3,6.7,13.3,8.7C617.4,833,622.7,834,628.2,834z
		 M699.3,832.4v-52.5c0-2.9,0.4-5.8,1.3-8.6c0.9-2.8,2.1-5.3,3.8-7.6c1.9-2.7,4-4.8,6.5-6.4c2.5-1.5,4.9-2.3,7.5-2.3
		c4,0,7,1.3,9,3.8c2,2.6,3,6.4,3,11.7l0,0v61.8h23.6v-54.1c0-8.5-2.4-15.2-7.1-20.3c-4.8-5.1-11.2-7.6-19.4-7.6c-7,0-13,1.8-18,5.5
		c-5,3.7-8.3,8.8-10.1,15.3l0,0v-61h-23.6v122.1H699.3z M809.1,834c9.7,0,17.8-2.3,24.3-6.9s10.8-11.1,13-19.5l0,0l-1.6-0.5
		c-1.9,7.4-5.4,13.2-10.6,17.4s-11.2,6.4-18.1,6.4c-8.1,0-14.1-3.1-18.1-9.3c-4-6.2-6-15.5-6-28l0,0V789h54.9
		c0-5.4-0.9-10.5-2.7-15.3c-1.8-4.8-4.3-8.9-7.6-12.4c-3.5-3.6-7.6-6.3-12.3-8.2c-4.7-1.8-9.9-2.8-15.6-2.8
		c-5.7,0-11.1,1.1-16.3,3.2c-5.2,2.1-9.7,5.1-13.5,9c-3.8,3.9-6.7,8.4-8.8,13.6s-3,10.7-3,16.7c0,5.8,1.1,11.1,3.2,16.1
		c2.1,5,5.2,9.4,9.1,13.2c3.9,3.7,8.5,6.6,13.8,8.6S803.7,834,809.1,834z M823.7,787.4h-31.8c0.3-12.1,1.9-21,4.6-26.8
		s6.8-8.7,12.1-8.7s9.2,2.7,11.6,8.1S823.7,774.4,823.7,787.4L823.7,787.4z M884.4,832.4v-52.5c0-2.9,0.4-5.8,1.3-8.6
		c0.9-2.8,2.1-5.3,3.8-7.6c1.9-2.7,4-4.8,6.5-6.4c2.5-1.5,4.9-2.3,7.5-2.3c4,0,7,1.3,9,3.8c2,2.6,3,6.4,3,11.7l0,0v61.8H939v-54.1
		c0-8.5-2.4-15.2-7.1-20.3c-4.8-5.1-11.2-7.6-19.4-7.6c-7,0-13,1.8-18,5.5c-5,3.7-8.3,8.8-10.1,15.3l0,0l-0.7-19.2h-23v80.4H884.4z
		 M1022.9,834c6.9,0,12.7-1.8,17.5-5.5c4.8-3.6,8.1-8.8,9.9-15.4l0,0l0.7,19.2h23V752h-23.6v52.5c-0.1,2.9-0.5,5.8-1.3,8.5
		c-0.8,2.7-1.9,5.2-3.4,7.5c-1.7,2.8-3.8,5-6.2,6.5c-2.4,1.5-4.9,2.3-7.4,2.3c-3.9,0-6.9-1.3-8.9-4c-2-2.7-3-6.5-3-11.7l0,0V752
		h-23.6v54c0,8.5,2.3,15.3,7,20.4S1014.7,834,1022.9,834z M1117,832.4v-52.5c0-2.9,0.4-5.8,1.3-8.6c0.9-2.8,2.1-5.3,3.8-7.6
		c1.9-2.7,4-4.8,6.5-6.4c2.5-1.5,4.9-2.3,7.5-2.3c4,0,7,1.3,9,3.8c2,2.6,3,6.4,3,11.7l0,0v61.8h23.6v-54.1c0-8.5-2.4-15.2-7.1-20.3
		c-4.8-5.1-11.2-7.6-19.4-7.6c-7,0-13,1.8-18,5.5c-5,3.7-8.3,8.8-10.1,15.3l0,0l-0.7-19.2h-23v80.4H1117z M1218.7,834
		c10.5,0,19-2.6,25.5-7.7s9.8-11.9,9.8-20.3c0-6-1.9-10.8-5.6-14.5c-3.7-3.7-9.9-6.7-18.7-9.1l0,0l-16.1-4.2
		c-5.5-1.4-9.3-3.1-11.4-5.1c-2.1-2-3.2-4.6-3.2-7.8c0-3.9,1.8-7.1,5.5-9.5c3.7-2.4,8.4-3.7,14.3-3.7c7.2,0,13.2,1.4,18,4.2
		c4.8,2.8,8.3,7,10.5,12.4l0,0l1.6-0.7c-2.2-5.7-5.9-10-11.1-13c-5.2-3-11.6-4.6-19-4.6c-9.6,0-17.6,2.5-23.9,7.6
		c-6.3,5.1-9.4,11.5-9.4,19.3c0,5.8,1.8,10.5,5.4,14.2c3.6,3.7,9.1,6.5,16.6,8.3l0,0l16.1,4.1c5.6,1.4,9.5,3.2,11.9,5.3
		c2.3,2.1,3.5,4.9,3.5,8.2c0,4.6-1.9,8.2-5.6,10.9c-3.7,2.7-8.6,4.1-14.8,4.1c-8.2,0-15.5-1.9-21.9-5.8c-6.4-3.9-10.4-9-12-15.4l0,0
		l-1.6,0.7c1.7,6.6,5.9,12,12.5,16.1C1202.2,832,1209.9,834,1218.7,834z M1299.7,795.9v-10.4c5.4-0.3,10.5-1.4,15.4-3.2
		c4.9-1.8,9.2-4.2,13-7.1c4.3-3.4,7.5-7.3,9.8-11.8c2.2-4.5,3.4-9.4,3.4-14.8c0-5-1.1-9.6-3.3-13.7c-2.2-4.1-5.4-7.7-9.5-10.6
		c-3.6-2.5-7.8-4.4-12.5-5.7c-4.7-1.3-9.7-2-15.1-2c-5.2,0-10.1,0.6-14.6,1.9c-4.5,1.2-8.4,3.1-11.8,5.5c-3.9,2.8-6.9,6.3-9,10.4
		c-2.1,4.1-3.1,8.6-3.1,13.4c0,5.3,1.4,10,4.3,14s6.5,6.5,10.7,7.5l0,0l0.7-1.5c-4.2-1.1-7.5-3.5-10.2-7.1c-2.6-3.6-3.9-8-3.9-13
		c0-4.1,0.8-8,2.5-11.7c1.6-3.6,3.9-6.8,6.9-9.4c2.8-2.5,6.2-4.4,10-5.7c3.8-1.3,7.9-2,12.3-2c7.9,0,14.1,2,18.7,6.1
		c4.6,4.1,6.9,9.6,6.9,16.7c0,6.4-2.2,11.9-6.6,16.5c-4.4,4.6-9.9,7.3-16.6,8.1l0,0v29.3H1299.7z M1312.8,832.4v-25.6h-25.4v25.6
		H1312.8z"/>
</g>
</svg>
