<?xml version="1.0" encoding="utf-8"?>
<!-- Generator: Adobe Illustrator 25.2.3, SVG Export Plug-In . SVG Version: 6.00 Build 0)  -->
<svg version="1.1" id="Layer_1" xmlns="http://www.w3.org/2000/svg" xmlns:xlink="http://www.w3.org/1999/xlink" x="0px" y="0px"
	 viewBox="0 0 1600 1266" style="enable-background:new 0 0 1600 1266;" xml:space="preserve">
<style type="text/css">
	.st0{fill-rule:evenodd;clip-rule:evenodd;fill:#FFFFFF;}
	.st1{font-family:'OpenSans-Bold';}
	.st2{font-size:39.4453px;}
	.st3{stroke:#000000;stroke-width:0.9544;}
</style>
<desc>Created with Sketch.</desc>
<g id="claim_02">
	<rect y="0" class="st0" width="1600" height="1266"/>
	<text transform="matrix(1 0 0 1 682 439.9997)" class="st1 st2">PORNY NEWS</text>
	<path id="KeinenHöhepunktverpassen" class="st3" d="M163,660.3v-39.4l11.1-11.3l36.7,50.6h27.1l-47.3-67.4l38.9-39.4h-2.1
		L163,618.8v-65.3h-23v106.8H163z M283.2,661.8c9,0,16.5-2.2,22.5-6.5c6-4.3,10-10.4,12-18.2l0,0l-1.5-0.5c-1.7,6.9-5,12.4-9.8,16.3
		s-10.4,5.9-16.8,5.9c-7.5,0-13.1-2.9-16.8-8.7c-3.7-5.8-5.6-14.5-5.6-26.2l0,0v-4.3h51c0-5.1-0.8-9.9-2.5-14.3
		c-1.7-4.5-4-8.3-7.1-11.6c-3.2-3.4-7-5.9-11.4-7.6c-4.4-1.7-9.2-2.6-14.5-2.6s-10.3,1-15.1,3c-4.8,2-9,4.8-12.6,8.5
		c-3.6,3.7-6.3,7.9-8.1,12.7c-1.9,4.8-2.8,10-2.8,15.6c0,5.4,1,10.4,3,15.1c2,4.7,4.8,8.8,8.4,12.4c3.7,3.5,7.9,6.2,12.8,8.1
		S278.1,661.8,283.2,661.8z M296.7,618.2h-29.5c0.3-11.3,1.7-19.7,4.3-25.1c2.5-5.4,6.3-8.2,11.3-8.2s8.5,2.5,10.7,7.6
		S296.7,606,296.7,618.2L296.7,618.2z M353,571.8v-22h-22.1v22H353z M353,660.3V585h-21.9v75.2H353z M393.2,660.3v-49.1
		c0-2.7,0.4-5.4,1.2-8c0.8-2.6,2-5,3.5-7.1c1.7-2.5,3.7-4.5,6-5.9c2.3-1.4,4.6-2.1,6.9-2.1c3.8,0,6.5,1.2,8.4,3.6s2.7,6,2.7,10.9
		l0,0v57.8h21.9v-50.6c0-7.9-2.2-14.3-6.6-19c-4.4-4.7-10.4-7.1-18-7.1c-6.5,0-12,1.7-16.7,5.2s-7.7,8.2-9.4,14.3l0,0l-0.6-18h-21.3
		v75.2H393.2z M495.1,661.8c9,0,16.5-2.2,22.5-6.5c6-4.3,10-10.4,12-18.2l0,0l-1.5-0.5c-1.7,6.9-5,12.4-9.8,16.3
		c-4.8,4-10.4,5.9-16.8,5.9c-7.5,0-13.1-2.9-16.8-8.7s-5.6-14.5-5.6-26.2l0,0v-4.3h51c0-5.1-0.8-9.9-2.5-14.3
		c-1.7-4.5-4-8.3-7.1-11.6c-3.2-3.4-7-5.9-11.4-7.6s-9.2-2.6-14.5-2.6c-5.3,0-10.3,1-15.1,3s-9,4.8-12.6,8.5
		c-3.6,3.7-6.3,7.9-8.1,12.7c-1.9,4.8-2.8,10-2.8,15.6c0,5.4,1,10.4,3,15.1c2,4.7,4.8,8.8,8.4,12.4c3.7,3.5,7.9,6.2,12.8,8.1
		S490,661.8,495.1,661.8z M508.7,618.2h-29.5c0.3-11.3,1.7-19.7,4.3-25.1c2.5-5.4,6.3-8.2,11.3-8.2c5,0,8.5,2.5,10.7,7.6
		C507.6,597.5,508.7,606,508.7,618.2L508.7,618.2z M564.9,660.3v-49.1c0-2.7,0.4-5.4,1.2-8s2-5,3.5-7.1c1.7-2.5,3.7-4.5,6-5.9
		c2.3-1.4,4.6-2.1,6.9-2.1c3.8,0,6.5,1.2,8.4,3.6s2.7,6,2.7,10.9l0,0v57.8h21.9v-50.6c0-7.9-2.2-14.3-6.6-19
		c-4.4-4.7-10.4-7.1-18-7.1c-6.5,0-12,1.7-16.7,5.2s-7.7,8.2-9.4,14.3l0,0l-0.6-18H543v75.2H564.9z M694.6,660.3v-54.3h53.9v54.3h23
		V553.5h-23v50.8h-53.9v-50.8h-23v106.8H694.6z M821.8,571.8v-22h-17.6v22H821.8z M848.5,571.8v-22h-17.6v22H848.5z M826.3,661.8
		c5.4,0,10.5-1,15.4-2.9c4.9-1.9,9.2-4.7,12.9-8.2c3.9-3.6,6.8-7.8,8.8-12.6c2-4.8,3-9.9,3-15.3c0-5.4-1-10.5-3-15.3
		c-2-4.8-5-9.1-8.8-12.7c-3.8-3.6-8.1-6.3-12.9-8.2c-4.9-1.9-10-2.9-15.4-2.9c-5.4,0-10.5,1-15.4,2.9c-4.9,1.9-9.2,4.7-12.9,8.2
		c-3.9,3.7-6.8,7.9-8.8,12.7c-2,4.8-3,9.9-3,15.3c0,5.4,1,10.5,3,15.3c2,4.8,5,9,8.8,12.6c3.7,3.6,7.9,6.3,12.9,8.2
		C815.8,660.8,821,661.8,826.3,661.8z M826.3,660.4c-6.1,0-10.4-3-13.1-8.9s-4-15.5-4-28.8c0-13.3,1.3-23,4-28.9s7-8.9,13.1-8.9
		c6.1,0,10.4,3,13.1,8.9c2.6,5.9,4,15.6,4,28.9c0,13.2-1.3,22.8-4,28.8C836.8,657.4,832.4,660.4,826.3,660.4z M901.3,660.3v-49.1
		c0-2.7,0.4-5.4,1.2-8c0.8-2.6,2-5,3.5-7.1c1.7-2.5,3.7-4.5,6-5.9c2.3-1.4,4.6-2.1,6.9-2.1c3.8,0,6.5,1.2,8.4,3.6
		c1.8,2.4,2.7,6,2.7,10.9l0,0v57.8H952v-50.6c0-7.9-2.2-14.3-6.6-19c-4.4-4.7-10.4-7.1-18-7.1c-6.5,0-12,1.7-16.7,5.2
		s-7.7,8.2-9.4,14.3l0,0v-57h-21.9v114.3H901.3z M1003.3,661.8c9,0,16.5-2.2,22.5-6.5c6-4.3,10-10.4,12-18.2l0,0l-1.5-0.5
		c-1.7,6.9-5,12.4-9.8,16.3s-10.4,5.9-16.8,5.9c-7.5,0-13.1-2.9-16.8-8.7c-3.7-5.8-5.6-14.5-5.6-26.2l0,0v-4.3h51
		c0-5.1-0.8-9.9-2.5-14.3c-1.7-4.5-4-8.3-7.1-11.6c-3.2-3.4-7-5.9-11.4-7.6c-4.4-1.7-9.2-2.6-14.5-2.6s-10.3,1-15.1,3
		c-4.8,2-9,4.8-12.6,8.5c-3.6,3.7-6.3,7.9-8.1,12.7c-1.9,4.8-2.8,10-2.8,15.6c0,5.4,1,10.4,3,15.1c2,4.7,4.8,8.8,8.4,12.4
		c3.7,3.5,7.9,6.2,12.8,8.1C993.2,660.8,998.2,661.8,1003.3,661.8z M1016.8,618.2h-29.5c0.3-11.3,1.7-19.7,4.3-25.1
		c2.5-5.4,6.3-8.2,11.3-8.2c5,0,8.5,2.5,10.7,7.6C1015.7,597.5,1016.8,606,1016.8,618.2L1016.8,618.2z M1073.1,693v-50.5
		c1.6,5.9,4.7,10.6,9.3,14c4.6,3.5,9.9,5.2,16.1,5.2c4.8,0,9.3-1.1,13.5-3.4c4.2-2.2,7.8-5.4,10.7-9.6c2.6-3.6,4.6-7.7,6-12.3
		c1.4-4.6,2.1-9.5,2.1-14.7c0-5.1-0.7-9.9-2.1-14.3c-1.4-4.5-3.4-8.4-6-11.7c-3-3.9-6.6-6.9-10.8-9c-4.2-2.1-8.5-3.2-13.1-3.2
		c-6.3,0-11.7,1.8-16.4,5.3c-4.6,3.5-7.7,8.3-9.4,14.3l0,0l-0.6-18h-21.3v108H1073.1z M1090.8,657c-4.8,0-8.9-2.3-12.3-6.9
		c-3.4-4.6-5.3-10.2-5.5-16.8l0,0V612c0.1-2.9,0.6-5.7,1.4-8.4c0.8-2.6,1.9-5,3.3-7.2c1.7-2.6,3.8-4.7,6.1-6.1s4.8-2.1,7.3-2.1
		c5.2,0,9.2,3,12.1,9s4.3,14.3,4.3,25c0,10.7-1.5,19.1-4.5,25.4C1100,653.9,1095.9,657,1090.8,657z M1167.4,661.8
		c6.4,0,11.8-1.7,16.2-5.1s7.5-8.2,9.2-14.4l0,0l0.6,18h21.3V585h-21.9v49.1c-0.1,2.7-0.5,5.4-1.2,7.9s-1.8,4.9-3.2,7
		c-1.6,2.6-3.6,4.7-5.8,6.1c-2.2,1.4-4.5,2.1-6.8,2.1c-3.7,0-6.4-1.2-8.2-3.7c-1.8-2.5-2.7-6.1-2.7-10.9l0,0V585h-21.9v50.5
		c0,7.9,2.2,14.3,6.5,19.1C1153.9,659.4,1159.8,661.8,1167.4,661.8z M1254.8,660.3v-49.1c0-2.7,0.4-5.4,1.2-8s2-5,3.5-7.1
		c1.7-2.5,3.7-4.5,6-5.9c2.3-1.4,4.6-2.1,6.9-2.1c3.8,0,6.5,1.2,8.4,3.6c1.8,2.4,2.7,6,2.7,10.9l0,0v57.8h21.9v-50.6
		c0-7.9-2.2-14.3-6.6-19c-4.4-4.7-10.4-7.1-18-7.1c-6.5,0-12,1.7-16.7,5.2s-7.7,8.2-9.4,14.3l0,0l-0.6-18h-21.3v75.2H1254.8z
		 M1344.8,660.3v-26.4l9.1-8.2l22.1,34.6h24.2l-30.6-49l28.6-26.2h-2l-51.4,47v-86h-21.9v114.3H1344.8z M1436.7,661.8
		c8,0,14.1-2.3,18.4-6.9c4.3-4.6,6.5-11.5,6.8-20.7l0,0l-1.7-0.2c-0.1,7.5-1.7,13.5-4.8,17.8s-7.1,6.6-12.1,6.6
		c-3.1,0-5.5-1.1-7.2-3.2c-1.6-2.1-2.4-5.2-2.4-9.3l0,0v-59.3h24.8l0.8-1.5h-25.6v-24.9l-21.8,8.1V585h-10.3v1.5h10.3v50.5
		c0,7.8,2.2,13.9,6.5,18.2C1423,659.6,1429,661.8,1436.7,661.8z M475.6,826.3l35-76.3h-1.7l-24.2,52.3L460.3,750h-23.4l38,76.3
		H475.6z M554.1,826.7c9,0,16.5-2.2,22.5-6.5c6-4.3,10-10.4,12-18.2l0,0l-1.5-0.5c-1.7,6.9-5,12.4-9.8,16.3
		c-4.8,4-10.4,5.9-16.8,5.9c-7.5,0-13.1-2.9-16.8-8.7c-3.7-5.8-5.6-14.5-5.6-26.2l0,0v-4.3h51c0-5.1-0.8-9.9-2.5-14.3
		c-1.7-4.5-4-8.3-7.1-11.6c-3.2-3.4-7-5.9-11.4-7.6c-4.4-1.7-9.2-2.6-14.5-2.6s-10.3,1-15.1,3c-4.8,2-9,4.8-12.6,8.5
		c-3.6,3.7-6.3,7.9-8.1,12.7c-1.9,4.8-2.8,10-2.8,15.6c0,5.4,1,10.4,3,15.1c2,4.7,4.8,8.8,8.4,12.4c3.7,3.5,7.9,6.2,12.8,8.1
		C544,825.8,549,826.7,554.1,826.7z M567.6,783.1h-29.5c0.3-11.3,1.7-19.7,4.3-25.1c2.5-5.4,6.3-8.2,11.3-8.2c5,0,8.5,2.5,10.7,7.6
		C566.5,762.4,567.6,771,567.6,783.1L567.6,783.1z M623.9,825.2v-45.3c0.2-3.4,0.9-6.8,2.1-10.2c1.2-3.5,2.7-6.6,4.6-9.3
		c2.1-3.4,4.6-5.9,7.5-7.7s5.9-2.7,9.1-2.7c4.4,0,7.8,1.3,10.4,3.8s3.9,6,3.9,10.4c0,2.4-0.5,4.7-1.4,6.7c-0.9,2-2.3,3.9-4.1,5.6
		l0,0l1.1,1.1c2-1.9,3.5-4,4.5-6.2c1-2.2,1.4-4.6,1.4-7.2c0-4.8-1.4-8.6-4.3-11.4c-2.8-2.8-6.7-4.3-11.6-4.3
		c-5.4,0-10.2,2.2-14.5,6.6c-4.3,4.4-7.3,10.1-9,17.2l0,0l-0.5-22.3H602v75.2H623.9z M696.9,858v-50.5c1.6,5.9,4.7,10.6,9.3,14
		s9.9,5.2,16.1,5.2c4.8,0,9.3-1.1,13.5-3.4c4.2-2.2,7.8-5.4,10.7-9.6c2.6-3.6,4.6-7.7,6-12.3c1.4-4.6,2.1-9.5,2.1-14.7
		c0-5.1-0.7-9.9-2.1-14.3s-3.4-8.4-6-11.7c-3-3.9-6.6-6.9-10.8-9c-4.2-2.1-8.5-3.2-13.1-3.2c-6.3,0-11.7,1.8-16.4,5.3
		c-4.6,3.5-7.7,8.3-9.4,14.3l0,0l-0.6-18H675v108H696.9z M714.6,822c-4.8,0-8.9-2.3-12.3-6.9c-3.4-4.6-5.3-10.2-5.5-16.8l0,0V777
		c0.1-2.9,0.6-5.7,1.4-8.4c0.8-2.6,1.9-5,3.3-7.2c1.7-2.6,3.8-4.7,6.1-6.1c2.3-1.4,4.8-2.1,7.3-2.1c5.2,0,9.2,3,12.1,9
		c2.9,6,4.3,14.3,4.3,25c0,10.7-1.5,19.1-4.5,25.4C723.8,818.9,719.8,822,714.6,822z M784.4,826.7c6.6,0,12.3-1.9,17-5.6
		c4.8-3.8,7.8-8.6,9.1-14.5l0,0l1.5,18.6h19.8v-47.3c0-9.7-2.9-17-8.7-22c-5.8-5-14.4-7.5-25.8-7.5c-9.2,0-16.5,1.9-21.7,5.6
		s-7.8,8.7-7.8,15c0,2.6,0.5,5,1.6,7.2c1.1,2.1,2.6,3.9,4.6,5.2l0,0l0.9-1.1c-2-1.5-3.5-3.2-4.3-4.9s-1.3-3.9-1.3-6.4
		c0-5.4,2.2-9.8,6.5-13.3c4.3-3.5,9.7-5.2,16.2-5.2c5.9,0,10.4,1.6,13.5,4.8c3.1,3.2,4.7,7.9,4.7,14l0,0v13.4l-19.3,3.4
		c-10,1.7-17.4,4.4-22,7.9s-6.9,8.1-6.9,13.7c0,5.7,2.1,10.3,6.2,13.7S777.7,826.7,784.4,826.7z M794.2,821.1c-3.3,0-6-1.5-7.9-4.4
		c-1.9-2.9-2.9-7.1-2.9-12.4c0-5.5,1.2-9.6,3.5-12.4c2.3-2.8,6.1-4.7,11.4-5.7l0,0l12-2v18.5c-0.7,5.3-2.6,9.7-5.6,13.2
		C801.6,819.3,798.1,821.1,794.2,821.1z M875.7,826.7c9.7,0,17.6-2.4,23.7-7.2c6-4.8,9.1-11.2,9.1-19c0-5.6-1.7-10.1-5.2-13.6
		s-9.2-6.3-17.3-8.5l0,0l-14.9-4c-5.1-1.3-8.6-2.9-10.6-4.7s-3-4.3-3-7.3c0-3.7,1.7-6.6,5.1-8.9s7.8-3.4,13.3-3.4
		c6.7,0,12.3,1.3,16.7,4c4.5,2.6,7.7,6.5,9.7,11.6l0,0l1.5-0.6c-2-5.3-5.5-9.4-10.3-12.2s-10.8-4.3-17.6-4.3
		c-8.9,0-16.3,2.4-22.1,7.1c-5.8,4.7-8.7,10.8-8.7,18.1c0,5.4,1.7,9.8,5,13.3s8.5,6.1,15.4,7.8l0,0l14.9,3.8c5.2,1.3,8.8,3,11,5
		c2.2,2,3.3,4.6,3.3,7.7c0,4.3-1.7,7.7-5.2,10.2c-3.4,2.5-8,3.8-13.7,3.8c-7.6,0-14.4-1.8-20.3-5.4s-9.7-8.4-11.2-14.4l0,0l-1.5,0.6
		c1.6,6.2,5.5,11.2,11.6,15C860.5,824.8,867.6,826.7,875.7,826.7z M947.8,826.7c9.7,0,17.6-2.4,23.7-7.2c6-4.8,9.1-11.2,9.1-19
		c0-5.6-1.7-10.1-5.2-13.6c-3.4-3.5-9.2-6.3-17.3-8.5l0,0l-14.9-4c-5.1-1.3-8.6-2.9-10.6-4.7s-3-4.3-3-7.3c0-3.7,1.7-6.6,5.1-8.9
		c3.4-2.3,7.8-3.4,13.3-3.4c6.7,0,12.3,1.3,16.7,4s7.7,6.5,9.7,11.6l0,0l1.5-0.6c-2-5.3-5.5-9.4-10.3-12.2
		c-4.9-2.8-10.8-4.3-17.6-4.3c-8.9,0-16.3,2.4-22.1,7.1c-5.8,4.7-8.7,10.8-8.7,18.1c0,5.4,1.7,9.8,5,13.3s8.5,6.1,15.4,7.8l0,0
		l14.9,3.8c5.2,1.3,8.8,3,11,5c2.2,2,3.3,4.6,3.3,7.7c0,4.3-1.7,7.7-5.2,10.2c-3.4,2.5-8,3.8-13.7,3.8c-7.6,0-14.4-1.8-20.3-5.4
		s-9.7-8.4-11.2-14.4l0,0l-1.5,0.6c1.6,6.2,5.5,11.2,11.6,15C932.6,824.8,939.7,826.7,947.8,826.7z M1027.5,826.7
		c9,0,16.5-2.2,22.5-6.5c6-4.3,10-10.4,12-18.2l0,0l-1.5-0.5c-1.7,6.9-5,12.4-9.8,16.3s-10.4,5.9-16.8,5.9c-7.5,0-13.1-2.9-16.8-8.7
		c-3.7-5.8-5.6-14.5-5.6-26.2l0,0v-4.3h51c0-5.1-0.8-9.9-2.5-14.3c-1.7-4.5-4-8.3-7.1-11.6c-3.2-3.4-7-5.9-11.4-7.6
		s-9.2-2.6-14.5-2.6c-5.3,0-10.3,1-15.1,3c-4.8,2-9,4.8-12.6,8.5c-3.6,3.7-6.3,7.9-8.1,12.7c-1.9,4.8-2.8,10-2.8,15.6
		c0,5.4,1,10.4,3,15.1c2,4.7,4.8,8.8,8.4,12.4c3.7,3.5,7.9,6.2,12.8,8.1C1017.5,825.8,1022.5,826.7,1027.5,826.7z M1041.1,783.1
		h-29.5c0.3-11.3,1.7-19.7,4.3-25.1c2.5-5.4,6.3-8.2,11.3-8.2c5,0,8.5,2.5,10.7,7.6C1040,762.4,1041.1,771,1041.1,783.1
		L1041.1,783.1z M1097.4,825.2v-49.1c0-2.7,0.4-5.4,1.2-8c0.8-2.6,2-5,3.5-7.1c1.7-2.5,3.7-4.5,6-5.9c2.3-1.4,4.6-2.1,6.9-2.1
		c3.8,0,6.5,1.2,8.4,3.6s2.7,6,2.7,10.9l0,0v57.8h21.9v-50.6c0-7.9-2.2-14.3-6.6-19c-4.4-4.7-10.4-7.1-18-7.1
		c-6.5,0-12,1.7-16.7,5.2s-7.7,8.2-9.4,14.3l0,0l-0.6-18h-21.3v75.2H1097.4z"/>
</g>
</svg>
