<?xml version="1.0" encoding="utf-8"?>
<!-- Generator: Adobe Illustrator 25.2.3, SVG Export Plug-In . SVG Version: 6.00 Build 0)  -->
<svg version="1.1" id="Layer_1" xmlns="http://www.w3.org/2000/svg" xmlns:xlink="http://www.w3.org/1999/xlink" x="0px" y="0px"
	 viewBox="0 0 1600 1266" style="enable-background:new 0 0 1600 1266;" xml:space="preserve">
<style type="text/css">
	.st0{fill-rule:evenodd;clip-rule:evenodd;fill:#1A1A1A;}
	.st1{fill:#FAD1D1;}
	.st2{font-family:'OpenSans-Bold';}
	.st3{font-size:39.4453px;}
	.st4{fill:#FAD1D1;stroke:#FAD1D1;stroke-width:0.8876;}
</style>
<desc>Created with Sketch.</desc>
<g id="claim_03">
	<rect x="0" class="st0" width="1600" height="1266"/>
	<text transform="matrix(1 0 0 1 652 357.9997)" class="st1 st2 st3">IMPRESSIONEN</text>
	<path id="Wennniemandzuschaut_x2C_macht_x27_skeinSpass" class="st4" d="M281.5,576l10.6-26.8l1.3-3.1V546l18.5-46.7l32.2,76.8h0.7
		L390,460h-2l-33,84.8L320.7,460h-25.2l15.4,36.8l-18.5,46.7L258,460h-26l48.9,116H281.5z M438.2,576c9.7,0,17.8-2.3,24.2-6.9
		c6.4-4.6,10.7-11.1,12.9-19.5l0,0l-1.6-0.5c-1.9,7.4-5.4,13.2-10.5,17.5c-5.2,4.2-11.2,6.4-18.1,6.4c-8.1,0-14.1-3.1-18.1-9.3
		c-4-6.2-6-15.6-6-28.1l0,0v-4.6h54.7c0-5.4-0.9-10.6-2.7-15.4c-1.8-4.8-4.3-8.9-7.6-12.4c-3.5-3.6-7.6-6.3-12.3-8.2
		c-4.7-1.9-9.9-2.8-15.5-2.8s-11.1,1.1-16.3,3.2c-5.2,2.1-9.7,5.1-13.5,9.1s-6.7,8.5-8.7,13.6c-2,5.2-3,10.8-3,16.7
		c0,5.8,1.1,11.2,3.2,16.2c2.1,5,5.1,9.4,9.1,13.2c3.9,3.7,8.5,6.6,13.7,8.7C427.4,575,432.8,576,438.2,576z M452.8,529.3h-31.7
		c0.3-12.1,1.9-21.1,4.6-26.9c2.7-5.8,6.8-8.7,12.1-8.7s9.2,2.7,11.5,8.1C451.6,507.1,452.8,516.3,452.8,529.3L452.8,529.3z
		 M513.2,574.4v-52.6c0-2.9,0.4-5.8,1.3-8.6c0.9-2.8,2.1-5.3,3.8-7.6c1.9-2.7,4-4.8,6.5-6.4c2.5-1.5,4.9-2.3,7.4-2.3
		c4,0,7,1.3,9,3.8c2,2.6,2.9,6.5,2.9,11.7l0,0v61.9h23.5v-54.2c0-8.5-2.4-15.3-7.1-20.3c-4.7-5.1-11.2-7.6-19.4-7.6
		c-7,0-12.9,1.9-17.9,5.6c-5,3.7-8.3,8.8-10,15.4l0,0l-0.7-19.3h-22.9v80.6H513.2z M610,574.4v-52.6c0-2.9,0.4-5.8,1.3-8.6
		c0.9-2.8,2.1-5.3,3.8-7.6c1.9-2.7,4-4.8,6.5-6.4c2.5-1.5,4.9-2.3,7.4-2.3c4,0,7,1.3,9,3.8s2.9,6.5,2.9,11.7l0,0v61.9h23.5v-54.2
		c0-8.5-2.4-15.3-7.1-20.3c-4.7-5.1-11.2-7.6-19.4-7.6c-7,0-12.9,1.9-17.9,5.6c-5,3.7-8.3,8.8-10,15.4l0,0l-0.7-19.3h-22.9v80.6H610
		z M746.1,574.4v-52.6c0-2.9,0.4-5.8,1.3-8.6c0.9-2.8,2.1-5.3,3.8-7.6c1.9-2.7,4-4.8,6.5-6.4c2.5-1.5,4.9-2.3,7.4-2.3
		c4,0,7,1.3,9,3.8s2.9,6.5,2.9,11.7l0,0v61.9h23.5v-54.2c0-8.5-2.4-15.3-7.1-20.3s-11.2-7.6-19.4-7.6c-7,0-12.9,1.9-17.9,5.6
		c-5,3.7-8.3,8.8-10,15.4l0,0l-0.7-19.3h-22.9v80.6H746.1z M842.8,479.6v-23.5h-23.7v23.5H842.8z M842.8,574.4v-80.6h-23.5v80.6
		H842.8z M898.7,576c9.7,0,17.8-2.3,24.2-6.9c6.4-4.6,10.7-11.1,12.9-19.5l0,0l-1.6-0.5c-1.9,7.4-5.4,13.2-10.5,17.5
		s-11.2,6.4-18.1,6.4c-8.1,0-14.1-3.1-18.1-9.3c-4-6.2-6-15.6-6-28.1l0,0v-4.6h54.7c0-5.4-0.9-10.6-2.7-15.4
		c-1.8-4.8-4.3-8.9-7.6-12.4c-3.5-3.6-7.6-6.3-12.3-8.2c-4.7-1.9-9.9-2.8-15.5-2.8c-5.7,0-11.1,1.1-16.3,3.2
		c-5.2,2.1-9.7,5.1-13.5,9.1s-6.7,8.5-8.7,13.6c-2,5.2-3,10.8-3,16.7c0,5.8,1.1,11.2,3.2,16.2s5.1,9.4,9.1,13.2
		c3.9,3.7,8.5,6.6,13.7,8.7C887.9,575,893.2,576,898.7,576z M913.2,529.3h-31.7c0.3-12.1,1.9-21.1,4.6-26.9s6.8-8.7,12.1-8.7
		c5.3,0,9.2,2.7,11.5,8.1C912.1,507.1,913.2,516.3,913.2,529.3L913.2,529.3z M973.7,574.4v-52.9c0.1-2.9,0.5-5.7,1.3-8.4
		s1.8-5.1,3.1-7.3c1.7-2.6,3.8-4.7,6-6.2c2.3-1.5,4.7-2.3,7.2-2.3c3.8,0,6.7,1.3,8.6,3.8c1.9,2.6,2.9,6.4,2.9,11.5l0,0v61.8h23.5
		v-52.9c0.1-2.9,0.5-5.7,1.3-8.4c0.8-2.7,1.8-5.1,3.1-7.3c1.7-2.6,3.8-4.7,6-6.2c2.3-1.5,4.7-2.3,7.2-2.3c3.8,0,6.7,1.3,8.6,3.8
		c1.9,2.6,2.9,6.4,2.9,11.5l0,0v61.8h23.5v-53.8c0-8.8-2.2-15.8-6.7-20.8s-10.7-7.6-18.8-7.6c-7.1,0-13,1.9-17.8,5.7
		c-4.8,3.8-8.1,9.2-9.8,16.2c-1-6.9-3.6-12.2-8-16.1c-4.4-3.9-10-5.8-17-5.8s-12.8,1.8-17.5,5.4c-4.7,3.6-7.9,8.7-9.6,15.4l0,0
		l-0.7-19.1h-22.9v80.6H973.7z M1115.8,576c7.1,0,13.2-2,18.3-6s8.4-9.2,9.8-15.5l0,0l1.6,19.9h21.2v-50.7c0-10.3-3.1-18.2-9.4-23.5
		s-15.5-8-27.7-8c-9.9,0-17.7,2-23.3,6s-8.4,9.3-8.4,16.1c0,2.8,0.6,5.4,1.7,7.7s2.8,4.1,5,5.6l0,0l1-1.1c-2.2-1.6-3.7-3.4-4.7-5.2
		s-1.4-4.1-1.4-6.9c0-5.8,2.3-10.5,6.9-14.2c4.6-3.7,10.4-5.6,17.4-5.6c6.3,0,11.2,1.7,14.5,5.1c3.4,3.4,5.1,8.4,5.1,15l0,0V529
		l-20.8,3.6c-10.8,1.9-18.7,4.7-23.6,8.5c-5,3.8-7.4,8.7-7.4,14.7c0,6.1,2.2,11,6.6,14.7C1102.8,574.2,1108.6,576,1115.8,576z
		 M1126.3,570c-3.6,0-6.4-1.6-8.5-4.7c-2.1-3.2-3.1-7.6-3.1-13.2c0-5.9,1.3-10.3,3.8-13.3s6.6-5,12.3-6.1l0,0l12.9-2.1v19.8
		c-0.8,5.7-2.8,10.4-6,14.1C1134.3,568.1,1130.5,570,1126.3,570z M1209.3,574.4v-52.6c0-2.9,0.4-5.8,1.3-8.6
		c0.9-2.8,2.1-5.3,3.8-7.6c1.9-2.7,4-4.8,6.5-6.4c2.5-1.5,4.9-2.3,7.4-2.3c4,0,7,1.3,9,3.8s2.9,6.5,2.9,11.7l0,0v61.9h23.5v-54.2
		c0-8.5-2.4-15.3-7.1-20.3c-4.7-5.1-11.2-7.6-19.4-7.6c-7,0-12.9,1.9-17.9,5.6c-5,3.7-8.3,8.8-10,15.4l0,0l-0.7-19.3h-22.9v80.6
		H1209.3z M1311.1,576c6.8,0,12.6-1.9,17.6-5.7c5-3.8,8.3-8.9,10-15.2l0,0l0.7,19.3h22.9V452h-23.5v60.9c-1.7-6.3-5.1-11.4-10-15.1
		c-5-3.8-10.8-5.6-17.4-5.6c-5,0-9.8,1.2-14.3,3.6s-8.4,5.8-11.7,10.3c-2.7,3.8-4.8,8.2-6.3,13.2c-1.5,5-2.2,10.2-2.2,15.8
		c0,5.4,0.7,10.6,2.2,15.4c1.5,4.8,3.6,9,6.5,12.7c3.2,4,7,7.2,11.4,9.5C1301.4,574.9,1306.1,576,1311.1,576z M1319.4,571
		c-5.6,0-9.9-3.2-13-9.6s-4.7-15.4-4.7-26.8c0-11.5,1.6-20.6,4.8-27.3c3.2-6.6,7.6-10,13.2-10c2.7,0,5.3,0.8,7.8,2.3
		c2.5,1.5,4.6,3.7,6.5,6.5c1.4,2.3,2.5,4.8,3.3,7.7s1.3,5.8,1.4,8.8l0,0v23c-0.1,3.2-0.6,6.2-1.4,9c-0.8,2.8-2,5.4-3.5,7.7
		c-1.9,2.7-4,4.8-6.5,6.4S1322.2,571,1319.4,571z M199.2,751.1v-1.6h-48.7l47.2-78.3v-0.7h-70.9v1.6h44.9L124,750.4v0.7H199.2z
		 M238.1,752.7c6.9,0,12.7-1.8,17.4-5.5c4.7-3.6,8-8.8,9.9-15.4l0,0l0.7,19.3h22.9v-80.6h-23.5v52.6c-0.1,2.9-0.5,5.8-1.3,8.5
		c-0.8,2.7-1.9,5.2-3.4,7.5c-1.7,2.8-3.8,5-6.2,6.5s-4.8,2.3-7.4,2.3c-3.9,0-6.9-1.3-8.8-4s-2.9-6.6-2.9-11.7l0,0v-61.8h-23.5v54.1
		c0,8.5,2.3,15.3,7,20.4C223.5,750.2,229.9,752.7,238.1,752.7z M336.4,752.7c10.5,0,18.9-2.6,25.4-7.8s9.7-12,9.7-20.3
		c0-6-1.9-10.8-5.6-14.5s-9.9-6.8-18.6-9.2l0,0l-16-4.2c-5.4-1.4-9.2-3.1-11.4-5.1s-3.2-4.6-3.2-7.8c0-3.9,1.8-7.1,5.5-9.6
		s8.4-3.7,14.3-3.7c7.2,0,13.2,1.4,18,4.2s8.3,7,10.5,12.4l0,0l1.6-0.7c-2.2-5.7-5.9-10-11.1-13.1c-5.2-3.1-11.5-4.6-19-4.6
		c-9.6,0-17.5,2.5-23.8,7.6c-6.3,5.1-9.4,11.5-9.4,19.4c0,5.8,1.8,10.5,5.4,14.2c3.6,3.7,9.1,6.5,16.5,8.3l0,0l16,4.1
		c5.6,1.4,9.5,3.2,11.8,5.3c2.3,2.1,3.5,4.9,3.5,8.3c0,4.6-1.9,8.2-5.6,10.9s-8.6,4.1-14.7,4.1c-8.2,0-15.4-1.9-21.8-5.8
		c-6.4-3.9-10.4-9-12-15.4l0,0l-1.6,0.7c1.7,6.6,5.9,12,12.5,16.1C320.1,750.7,327.7,752.7,336.4,752.7z M420.7,752.7
		c9.4,0,17.1-2.3,23.1-6.9c6-4.6,9.9-11.1,11.7-19.5l0,0l-1.6-0.5c-1.3,7.2-4.3,12.9-9.1,17.1c-4.7,4.2-10.2,6.3-16.4,6.3
		c-7.6,0-13.5-3.3-17.6-9.8s-6.1-15.8-6.1-27.9c0-12.1,2.3-21.6,7-28.6c4.7-7,10.9-10.5,18.8-10.5c6,0,10.9,1.9,14.7,5.7
		c3.8,3.8,5.7,8.7,5.7,14.7c0,3.1-0.5,5.7-1.6,8.1c-1.1,2.3-2.7,4.3-4.7,6l0,0l1,1.1c2.2-1.5,3.9-3.6,5.1-6.4
		c1.3-2.7,1.9-5.7,1.9-8.8c0-7.2-2.6-13-7.9-17.3c-5.3-4.4-12.4-6.5-21.3-6.5c-5.8,0-11.3,1.1-16.7,3.2s-10,5.1-14.1,9.1
		c-4.1,4-7.3,8.7-9.4,13.9s-3.2,10.8-3.2,16.8c0,5.8,1,11.1,3,16.1c2,5,4.9,9.3,8.7,13c3.8,3.8,8.2,6.7,13.2,8.7
		S415.3,752.7,420.7,752.7z M491.6,751.1v-52.6c0-2.9,0.4-5.8,1.3-8.6c0.9-2.8,2.1-5.3,3.8-7.6c1.9-2.7,4-4.8,6.5-6.4
		c2.5-1.5,4.9-2.3,7.4-2.3c4,0,7,1.3,9,3.8c2,2.6,2.9,6.5,2.9,11.7l0,0v61.9h23.5v-54.2c0-8.5-2.4-15.3-7.1-20.3
		c-4.7-5.1-11.2-7.6-19.4-7.6c-7,0-12.9,1.9-17.9,5.6c-5,3.7-8.3,8.8-10,15.4l0,0v-61.1h-23.5v122.4H491.6z M583,752.7
		c7.1,0,13.2-2,18.3-6s8.4-9.2,9.8-15.5l0,0l1.6,19.9H634v-50.7c0-10.3-3.1-18.2-9.4-23.5c-6.3-5.3-15.5-8-27.7-8
		c-9.9,0-17.7,2-23.3,6c-5.6,4-8.4,9.3-8.4,16.1c0,2.8,0.6,5.4,1.7,7.7s2.8,4.1,5,5.6l0,0l1-1.1c-2.2-1.6-3.7-3.4-4.7-5.2
		c-0.9-1.9-1.4-4.1-1.4-6.9c0-5.8,2.3-10.5,6.9-14.2c4.6-3.7,10.4-5.6,17.4-5.6c6.3,0,11.2,1.7,14.5,5.1s5.1,8.4,5.1,15l0,0v14.4
		l-20.8,3.6c-10.8,1.9-18.7,4.7-23.6,8.5c-5,3.8-7.4,8.7-7.4,14.7c0,6.1,2.2,11,6.6,14.7S575.8,752.7,583,752.7z M593.4,746.7
		c-3.6,0-6.4-1.6-8.5-4.7c-2.1-3.2-3.1-7.6-3.1-13.2c0-5.9,1.3-10.3,3.8-13.3c2.5-3,6.6-5,12.3-6.1l0,0l12.9-2.1v19.8
		c-0.8,5.7-2.8,10.4-6,14.1C601.5,744.8,597.7,746.7,593.4,746.7z M678.4,752.7c6.9,0,12.7-1.8,17.4-5.5c4.7-3.6,8-8.8,9.9-15.4l0,0
		l0.7,19.3h22.9v-80.6h-23.5v52.6c-0.1,2.9-0.5,5.8-1.3,8.5c-0.8,2.7-1.9,5.2-3.4,7.5c-1.7,2.8-3.8,5-6.2,6.5
		c-2.4,1.5-4.8,2.3-7.4,2.3c-3.9,0-6.9-1.3-8.8-4s-2.9-6.6-2.9-11.7l0,0v-61.8h-23.5v54.1c0,8.5,2.3,15.3,7,20.4
		C663.8,750.2,670.2,752.7,678.4,752.7z M776.6,752.7c8.6,0,15.2-2.5,19.8-7.4s7-12.3,7.4-22.1l0,0l-1.8-0.2
		c-0.1,8.1-1.8,14.4-5.1,19.1s-7.7,7-13,7c-3.4,0-5.9-1.1-7.7-3.4s-2.6-5.6-2.6-10l0,0v-63.6h26.6l0.8-1.6h-27.5v-26.6l-23.4,8.7v18
		H739v1.6h11.1v54.1c0,8.4,2.3,14.9,7,19.5C761.9,750.4,768.3,752.7,776.6,752.7z M812.1,778.7c9.3,0,16.2-2.2,20.8-6.6
		c4.6-4.4,6.9-11,6.9-19.9l0,0v-26.8h-25.3v25.7h23.7v1.3c0,8.3-2.2,14.5-6.5,18.5c-4.4,4.1-10.9,6.1-19.6,6.1l0,0V778.7z
		 M921.6,751.1v-52.9c0.1-2.9,0.5-5.7,1.3-8.4c0.8-2.7,1.8-5.1,3.1-7.3c1.7-2.6,3.8-4.7,6-6.2s4.7-2.3,7.2-2.3
		c3.8,0,6.7,1.3,8.6,3.8c1.9,2.6,2.9,6.4,2.9,11.5l0,0v61.8h23.5v-52.9c0.1-2.9,0.5-5.7,1.3-8.4c0.8-2.7,1.8-5.1,3.1-7.3
		c1.7-2.6,3.8-4.7,6-6.2s4.7-2.3,7.2-2.3c3.8,0,6.7,1.3,8.6,3.8c1.9,2.6,2.9,6.4,2.9,11.5l0,0v61.8h23.5v-53.8
		c0-8.8-2.2-15.8-6.7-20.8c-4.5-5.1-10.7-7.6-18.8-7.6c-7.1,0-13,1.9-17.8,5.7c-4.8,3.8-8.1,9.2-9.8,16.2c-1-6.9-3.6-12.2-8-16.1
		c-4.4-3.9-10-5.8-17-5.8s-12.8,1.8-17.5,5.4c-4.7,3.6-7.9,8.7-9.6,15.4l0,0l-0.7-19.1H898v80.6H921.6z M1063.7,752.7
		c7.1,0,13.2-2,18.3-6s8.4-9.2,9.8-15.5l0,0l1.6,19.9h21.2v-50.7c0-10.3-3.1-18.2-9.4-23.5c-6.3-5.3-15.5-8-27.7-8
		c-9.9,0-17.7,2-23.3,6c-5.6,4-8.4,9.3-8.4,16.1c0,2.8,0.6,5.4,1.7,7.7s2.8,4.1,5,5.6l0,0l1-1.1c-2.2-1.6-3.7-3.4-4.7-5.2
		s-1.4-4.1-1.4-6.9c0-5.8,2.3-10.5,6.9-14.2c4.6-3.7,10.4-5.6,17.4-5.6c6.3,0,11.2,1.7,14.5,5.1s5.1,8.4,5.1,15l0,0v14.4l-20.8,3.6
		c-10.8,1.9-18.7,4.7-23.6,8.5s-7.4,8.7-7.4,14.7c0,6.1,2.2,11,6.6,14.7C1050.7,750.9,1056.5,752.7,1063.7,752.7z M1074.2,746.7
		c-3.6,0-6.4-1.6-8.5-4.7c-2.1-3.2-3.1-7.6-3.1-13.2c0-5.9,1.3-10.3,3.8-13.3s6.6-5,12.3-6.1l0,0l12.9-2.1v19.8
		c-0.8,5.7-2.8,10.4-6,14.1C1082.2,744.8,1078.4,746.7,1074.2,746.7z M1168.6,752.7c9.4,0,17.1-2.3,23.1-6.9
		c6-4.6,9.9-11.1,11.7-19.5l0,0l-1.6-0.5c-1.3,7.2-4.3,12.9-9.1,17.1c-4.7,4.2-10.2,6.3-16.4,6.3c-7.6,0-13.5-3.3-17.6-9.8
		s-6.1-15.8-6.1-27.9c0-12.1,2.3-21.6,7-28.6c4.7-7,10.9-10.5,18.8-10.5c6,0,10.9,1.9,14.7,5.7c3.8,3.8,5.7,8.7,5.7,14.7
		c0,3.1-0.5,5.7-1.6,8.1c-1.1,2.3-2.7,4.3-4.7,6l0,0l1,1.1c2.2-1.5,3.9-3.6,5.1-6.4s1.9-5.7,1.9-8.8c0-7.2-2.6-13-7.9-17.3
		c-5.3-4.4-12.4-6.5-21.3-6.5c-5.8,0-11.3,1.1-16.7,3.2c-5.3,2.1-10,5.1-14.1,9.1c-4.1,4-7.3,8.7-9.4,13.9
		c-2.1,5.2-3.2,10.8-3.2,16.8c0,5.8,1,11.1,3,16.1c2,5,4.9,9.3,8.7,13c3.8,3.8,8.2,6.7,13.2,8.7
		C1157.9,751.7,1163.2,752.7,1168.6,752.7z M1239.5,751.1v-52.6c0-2.9,0.4-5.8,1.3-8.6c0.9-2.8,2.1-5.3,3.8-7.6
		c1.9-2.7,4-4.8,6.5-6.4c2.5-1.5,4.9-2.3,7.4-2.3c4,0,7,1.3,9,3.8s2.9,6.5,2.9,11.7l0,0v61.9h23.5v-54.2c0-8.5-2.4-15.3-7.1-20.3
		c-4.7-5.1-11.2-7.6-19.4-7.6c-7,0-12.9,1.9-17.9,5.6c-5,3.7-8.3,8.8-10,15.4l0,0v-61.1H1216v122.4H1239.5z M1340.7,752.7
		c8.6,0,15.2-2.5,19.8-7.4s7-12.3,7.4-22.1l0,0l-1.8-0.2c-0.1,8.1-1.8,14.4-5.1,19.1c-3.3,4.7-7.7,7-13,7c-3.4,0-5.9-1.1-7.7-3.4
		s-2.6-5.6-2.6-10l0,0v-63.6h26.6l0.8-1.6h-27.5v-26.6l-23.4,8.7v18h-11.1v1.6h11.1v54.1c0,8.4,2.3,14.9,7,19.5
		C1325.9,750.4,1332.4,752.7,1340.7,752.7z M1387.4,684.7l9.3-48h-19.4l9.3,48H1387.4z M1442.3,752.7c10.5,0,18.9-2.6,25.4-7.8
		c6.5-5.2,9.7-12,9.7-20.3c0-6-1.9-10.8-5.6-14.5s-9.9-6.8-18.6-9.2l0,0l-16-4.2c-5.4-1.4-9.2-3.1-11.4-5.1c-2.1-2-3.2-4.6-3.2-7.8
		c0-3.9,1.8-7.1,5.5-9.6c3.6-2.5,8.4-3.7,14.3-3.7c7.2,0,13.2,1.4,18,4.2s8.3,7,10.5,12.4l0,0l1.6-0.7c-2.2-5.7-5.9-10-11.1-13.1
		c-5.2-3.1-11.5-4.6-19-4.6c-9.6,0-17.5,2.5-23.8,7.6c-6.3,5.1-9.4,11.5-9.4,19.4c0,5.8,1.8,10.5,5.4,14.2c3.6,3.7,9.1,6.5,16.5,8.3
		l0,0l16,4.1c5.6,1.4,9.5,3.2,11.8,5.3c2.3,2.1,3.5,4.9,3.5,8.3c0,4.6-1.9,8.2-5.6,10.9s-8.6,4.1-14.7,4.1c-8.2,0-15.4-1.9-21.8-5.8
		c-6.4-3.9-10.4-9-12-15.4l0,0l-1.6,0.7c1.7,6.6,5.9,12,12.5,16.1C1425.9,750.7,1433.6,752.7,1442.3,752.7z M432.8,927.8v-28.3
		l9.8-8.8l23.7,37.1h26l-32.8-52.5l30.7-28.1h-2.1l-55.2,50.3v-92.2h-23.5v122.4H432.8z M539.9,929.4c9.7,0,17.8-2.3,24.2-6.9
		c6.4-4.6,10.7-11.1,12.9-19.5l0,0l-1.6-0.5c-1.9,7.4-5.4,13.2-10.5,17.5c-5.2,4.2-11.2,6.4-18.1,6.4c-8.1,0-14.1-3.1-18.1-9.3
		c-4-6.2-6-15.6-6-28.1l0,0v-4.6h54.7c0-5.4-0.9-10.6-2.7-15.4c-1.8-4.8-4.3-8.9-7.6-12.4c-3.5-3.6-7.6-6.3-12.3-8.2
		s-9.9-2.8-15.5-2.8s-11.1,1.1-16.3,3.2s-9.7,5.1-13.5,9.1c-3.8,3.9-6.7,8.5-8.7,13.6c-2,5.2-3,10.8-3,16.7c0,5.8,1.1,11.2,3.2,16.2
		s5.1,9.4,9.1,13.2c3.9,3.7,8.5,6.6,13.7,8.7C529.1,928.4,534.4,929.4,539.9,929.4z M554.4,882.7h-31.7c0.3-12.1,1.9-21.1,4.6-26.9
		s6.8-8.7,12.1-8.7s9.2,2.7,11.5,8.1C553.2,860.5,554.4,869.7,554.4,882.7L554.4,882.7z M614.9,833v-23.5h-23.7V833H614.9z
		 M614.9,927.8v-80.6h-23.5v80.6H614.9z M658,927.8v-52.6c0-2.9,0.4-5.8,1.3-8.6c0.9-2.8,2.1-5.3,3.8-7.6c1.9-2.7,4-4.8,6.5-6.4
		c2.5-1.5,4.9-2.3,7.4-2.3c4,0,7,1.3,9,3.8c2,2.6,2.9,6.5,2.9,11.7l0,0v61.9h23.5v-54.2c0-8.5-2.4-15.3-7.1-20.3
		c-4.7-5.1-11.2-7.6-19.4-7.6c-7,0-12.9,1.9-17.9,5.6s-8.3,8.8-10,15.4l0,0l-0.7-19.3h-22.9v80.6H658z M810.6,929.4
		c6,0,11.6-0.8,16.9-2.4s10-3.8,14.1-6.8c4.7-3.4,8.3-7.4,10.7-12.2c2.5-4.7,3.7-9.9,3.7-15.6c0-8.2-2.5-14.9-7.6-20.2
		c-5.1-5.3-13-9.4-23.9-12.3l0,0l-17.8-4.9c-4.8-1.3-8.4-2.4-10.9-3.3s-4.5-1.9-6.1-2.9c-2.9-1.6-5.1-3.7-6.5-6.1
		c-1.4-2.5-2-5.4-2-8.7c0-6.2,2.5-11.2,7.4-14.9s11.4-5.6,19.6-5.6c9.6,0,18,2.1,25.2,6.2c7.2,4.1,12.5,9.9,15.8,17.2l0,0l1.6-1.1
		c-3.5-7.5-9-13.4-16.5-17.6c-7.5-4.2-16.3-6.4-26.5-6.4c-5.6,0-10.8,0.7-15.7,2.2c-4.9,1.5-9.2,3.6-12.9,6.3
		c-4.4,3.2-7.7,7-10,11.4s-3.4,9.3-3.4,14.5c0,8.1,2.6,14.7,7.8,19.9s13.4,9.2,24.6,12.2l0,0l18,4.9c8.8,2.4,15,5.3,18.5,8.7
		c3.5,3.4,5.3,7.8,5.3,13.2c0,6.9-2.7,12.3-8.2,16.4c-5.4,4.1-12.8,6.1-22.1,6.1c-10.5,0-19.7-2.3-27.8-6.8
		c-8.1-4.5-13.9-10.7-17.5-18.5l0,0l-1.6,1c3.9,8.3,10,14.7,18.4,19.3S799.4,929.4,810.6,929.4z M893.6,962.9v-54.1
		c1.7,6.3,5.1,11.3,10,15c4.9,3.7,10.7,5.6,17.3,5.6c5.1,0,9.9-1.2,14.5-3.6c4.5-2.4,8.4-5.8,11.5-10.3c2.8-3.8,5-8.2,6.5-13.2
		c1.5-5,2.2-10.2,2.2-15.8c0-5.4-0.7-10.6-2.2-15.4c-1.5-4.8-3.6-9-6.5-12.6c-3.3-4.1-7.1-7.4-11.6-9.6c-4.5-2.3-9.2-3.4-14.1-3.4
		c-6.8,0-12.6,1.9-17.6,5.6s-8.3,8.9-10,15.3l0,0l-0.7-19.3h-22.9v115.7H893.6z M912.6,924.4c-5.1,0-9.5-2.5-13.2-7.4
		s-5.7-10.9-5.9-18l0,0v-22.9c0.1-3.2,0.6-6.2,1.5-9c0.9-2.8,2.1-5.4,3.6-7.7c1.9-2.8,4-5,6.5-6.5c2.5-1.5,5.1-2.3,7.8-2.3
		c5.6,0,9.9,3.2,13,9.6c3.1,6.4,4.7,15.4,4.7,26.8s-1.6,20.5-4.8,27.2C922.5,921,918.1,924.4,912.6,924.4z M987.6,929.4
		c7.1,0,13.2-2,18.3-6c5.1-4,8.4-9.2,9.8-15.5l0,0l1.6,19.9h21.2v-50.7c0-10.3-3.1-18.2-9.4-23.5c-6.3-5.3-15.5-8-27.7-8
		c-9.9,0-17.7,2-23.3,6c-5.6,4-8.4,9.3-8.4,16.1c0,2.8,0.6,5.4,1.7,7.7c1.1,2.3,2.8,4.1,5,5.6l0,0l1-1.1c-2.2-1.6-3.7-3.4-4.7-5.2
		c-0.9-1.9-1.4-4.1-1.4-6.9c0-5.8,2.3-10.5,6.9-14.2c4.6-3.7,10.4-5.6,17.4-5.6c6.3,0,11.2,1.7,14.5,5.1c3.4,3.4,5.1,8.4,5.1,15l0,0
		v14.4l-20.8,3.6c-10.8,1.9-18.7,4.7-23.6,8.5s-7.4,8.7-7.4,14.7c0,6.1,2.2,11,6.6,14.7S980.4,929.4,987.6,929.4z M998,923.4
		c-3.6,0-6.4-1.6-8.5-4.7c-2.1-3.2-3.1-7.6-3.1-13.2c0-5.9,1.3-10.3,3.8-13.3c2.5-3,6.6-5,12.3-6.1l0,0l12.9-2.1v19.8
		c-0.8,5.7-2.8,10.4-6,14.1S1002.3,923.4,998,923.4z M1085.6,929.4c10.5,0,18.9-2.6,25.4-7.8c6.5-5.2,9.7-12,9.7-20.3
		c0-6-1.9-10.8-5.6-14.5c-3.7-3.7-9.9-6.8-18.6-9.2l0,0l-16-4.2c-5.4-1.4-9.2-3.1-11.4-5.1c-2.1-2-3.2-4.6-3.2-7.8
		c0-3.9,1.8-7.1,5.5-9.6c3.6-2.5,8.4-3.7,14.3-3.7c7.2,0,13.2,1.4,18,4.2c4.8,2.8,8.3,7,10.5,12.4l0,0l1.6-0.7
		c-2.2-5.7-5.9-10-11.1-13.1c-5.2-3.1-11.5-4.6-19-4.6c-9.6,0-17.5,2.5-23.8,7.6c-6.3,5.1-9.4,11.5-9.4,19.4
		c0,5.8,1.8,10.5,5.4,14.2s9.1,6.5,16.5,8.3l0,0l16,4.1c5.6,1.4,9.5,3.2,11.8,5.3c2.3,2.1,3.5,4.9,3.5,8.3c0,4.6-1.9,8.2-5.6,10.9
		s-8.6,4.1-14.7,4.1c-8.2,0-15.4-1.9-21.8-5.8c-6.4-3.9-10.4-9-12-15.4l0,0l-1.6,0.7c1.7,6.6,5.9,12,12.5,16.1
		S1076.9,929.4,1085.6,929.4z M1163.1,929.4c10.5,0,18.9-2.6,25.4-7.8c6.5-5.2,9.7-12,9.7-20.3c0-6-1.9-10.8-5.6-14.5
		s-9.9-6.8-18.6-9.2l0,0l-16-4.2c-5.4-1.4-9.2-3.1-11.4-5.1c-2.1-2-3.2-4.6-3.2-7.8c0-3.9,1.8-7.1,5.5-9.6c3.6-2.5,8.4-3.7,14.3-3.7
		c7.2,0,13.2,1.4,18,4.2c4.8,2.8,8.3,7,10.5,12.4l0,0l1.6-0.7c-2.2-5.7-5.9-10-11.1-13.1c-5.2-3.1-11.5-4.6-19-4.6
		c-9.6,0-17.5,2.5-23.8,7.6c-6.3,5.1-9.4,11.5-9.4,19.4c0,5.8,1.8,10.5,5.4,14.2c3.6,3.7,9.1,6.5,16.5,8.3l0,0l16,4.1
		c5.6,1.4,9.5,3.2,11.8,5.3s3.5,4.9,3.5,8.3c0,4.6-1.9,8.2-5.6,10.9s-8.6,4.1-14.7,4.1c-8.2,0-15.4-1.9-21.8-5.8s-10.4-9-12-15.4
		l0,0l-1.6,0.7c1.7,6.6,5.9,12,12.5,16.1S1154.3,929.4,1163.1,929.4z"/>
</g>
</svg>
